<?xml version="1.0" encoding="utf-8" standalone="no"?>
<svg xmlns="http://www.w3.org/2000/svg" xmlns:xlink="http://www.w3.org/1999/xlink" width="500" height="135">
  <!-- Created by: GoveeBTTempLogger Version 2.20210305-1 Built on: Mar  5 2021 at 12:33:52 -->
  <style>
    text { font-family: sans-serif; font-size: 12px; fill: black; }
    line { stroke: black; }
    polygon { fill-opacity:0.5; }
    @media screen and (prefers-color-scheme: dark) {
    text { fill: grey; }
    line { stroke: grey; }
    }
  </style>
  <rect style="fill-opacity:0;stroke:grey;stroke-width:2" width="500" height="135" />
  <text x="54" y="12">Outside (E3:5E:CC:21:5C:0F)</text>
  <text style="text-anchor:end" x="470" y="12">2021-03-05 12:35:38</text>
  <text style="fill:blue;text-anchor:middle" x="12" y="67" transform="rotate(270 12,67)">Temperature (51.7°F)</text>
  <text style="fill:green;text-anchor:middle" x="24" y="67" transform="rotate(270 24,67)">Humidity (87.7%)</text>
  <!-- Humidity -->
  <polygon style="fill:lime;stroke:green" points="55,120 54,39 55,40 56,40 57,42 58,39 59,40 60,40 61,36 62,37 63,36 64,36 65,36 66,37 67,37 68,37 69,38 70,39 71,38 72,39 73,39 74,38 75,42 76,43 77,48 78,52 79,59 80,69 81,73 82,73 83,75 84,74 85,75 86,73 87,69 88,66 89,60 90,55 91,52 92,49 93,46 94,47 95,46 96,46 97,48 98,49 99,50 100,51 101,54 102,55 103,56 104,54 105,55 106,57 107,53 108,52 109,53 110,47 111,47 112,44 113,44 114,32 115,22 116,19 117,19 118,19 119,18 120,18 121,18 122,17 123,17 124,16 125,16 126,16 127,16 128,16 129,16 130,16 131,16 132,16 133,16 134,15 135,15 136,15 137,15 138,17 139,16 140,17 141,17 142,17 143,17 144,18 145,18 146,18 147,17 148,17 149,17 150,17 151,18 152,17 153,17 154,17 155,18 156,18 157,18 158,19 159,19 160,18 161,18 162,18 163,17 164,17 165,17 166,16 167,16 168,17 169,16 170,16 171,17 172,17 173,17 174,17 175,17 176,17 177,16 178,16 179,15 180,17 181,17 182,18 183,18 184,17 185,18 186,18 187,19 188,19 189,21 190,21 191,21 192,21 193,22 194,23 195,22 196,23 197,23 198,23 199,23 200,23 201,23 202,23 203,23 204,22 205,23 206,21 207,21 208,21 209,20 210,20 211,19 212,19 213,19 214,19 215,18 216,18 217,18 218,18 219,18 220,18 221,18 222,18 223,19 224,19 225,20 226,19 227,19 228,19 229,19 230,20 231,20 232,20 233,20 234,19 235,19 236,19 237,20 238,18 239,17 240,18 241,18 242,17 243,17 244,18 245,18 246,19 247,19 248,19 249,19 250,18 251,19 252,20 253,20 254,21 255,22 256,23 257,21 258,22 259,22 260,15 261,14 262,14 263,15 264,14 265,14 266,14 267,14 268,15 269,17 270,23 271,24 272,25 273,26 274,26 275,26 276,26 277,26 278,27 279,25 280,27 281,27 282,27 283,28 284,27 285,28 286,28 287,27 288,28 289,31 290,31 291,30 292,30 293,32 294,33 295,33 296,32 297,32 298,34 299,34 300,35 301,38 302,37 303,38 304,39 305,40 306,41 307,41 308,44 309,46 310,46 311,48 312,49 313,49 314,51 315,53 316,53 317,54 318,57 319,58 320,59 321,57 322,60 323,60 324,61 325,62 326,61 327,67 328,69 329,74 330,78 331,79 332,81 333,85 334,85 335,90 336,95 337,99 338,99 339,101 340,103 341,104 342,103 343,105 344,107 345,108 346,107 347,107 348,113 349,117 350,120 351,121 352,118 353,119 354,119 355,119 356,113 357,114 358,110 359,108 360,107 361,110 362,114 363,107 364,107 365,104 366,108 367,100 368,94 369,93 370,92 371,88 372,92 373,89 374,90 375,93 376,93 377,92 378,90 379,88 380,90 381,84 382,71 383,64 384,56 385,51 386,48 387,49 388,44 389,42 390,42 391,38 392,37 393,36 394,34 395,33 396,32 397,31 398,29 399,30 400,30 401,29 402,28 403,27 404,27 405,27 406,26 407,27 408,26 409,26 410,25 411,24 412,23 413,22 414,22 415,22 416,22 417,22 418,23 419,23 420,23 421,23 422,23 423,22 424,23 425,23 426,24 427,25 428,25 429,26 430,27 431,27 432,27 433,27 434,27 435,26 436,26 437,26 438,25 439,25 440,25 441,25 442,25 443,25 444,24 445,24 446,24 447,24 448,23 449,23 450,23 451,22 452,22 453,21 454,21 455,20 456,21 457,20 458,20 459,20 460,20 461,20 462,20 463,22 464,22 465,21 466,21 467,21 468,22 469,24 469,120" />
  <line x1="52" y1="14" x2="472" y2="14"/>
  <text style="fill:blue;text-anchor:end" x="52" y="19">59.5</text>
  <text style="fill:green" x="472" y="18">96.8</text>
  <line x1="52" y1="121" x2="472" y2="121"/>
  <text style="fill:blue;text-anchor:end" x="52" y="126">39.3</text>
  <text style="fill:green" x="472" y="125">59.1</text>
  <line x1="54" y1="14" x2="54" y2="121"/>
  <line x1="470" y1="14" x2="470" y2="121"/>
  <line style="stroke-dasharray:1" x1="52" y1="40" x2="472" y2="40" />
  <text style="fill:blue;text-anchor:end" x="52" y="44">54.5</text>
  <text style="fill:green" x="472" y="44">87.3</text>
  <line style="stroke-dasharray:1" x1="52" y1="66" x2="472" y2="66" />
  <text style="fill:blue;text-anchor:end" x="52" y="70">49.4</text>
  <text style="fill:green" x="472" y="70">77.9</text>
  <line style="stroke-dasharray:1" x1="52" y1="92" x2="472" y2="92" />
  <text style="fill:blue;text-anchor:end" x="52" y="96">44.4</text>
  <text style="fill:green" x="472" y="96">68.5</text>
  <line style="stroke-dasharray:1" x1="61" y1="14" x2="61" y2="123" />
  <text style="text-anchor:middle" x="61" y="133">12</text>
  <line style="stroke-dasharray:1" x1="73" y1="14" x2="73" y2="123" />
  <line style="stroke-dasharray:1" x1="85" y1="14" x2="85" y2="123" />
  <text style="text-anchor:middle" x="85" y="133">10</text>
  <line style="stroke-dasharray:1" x1="97" y1="14" x2="97" y2="123" />
  <line style="stroke-dasharray:1" x1="109" y1="14" x2="109" y2="123" />
  <text style="text-anchor:middle" x="109" y="133">8</text>
  <line style="stroke-dasharray:1" x1="121" y1="14" x2="121" y2="123" />
  <line style="stroke-dasharray:1" x1="133" y1="14" x2="133" y2="123" />
  <text style="text-anchor:middle" x="133" y="133">6</text>
  <line style="stroke-dasharray:1" x1="145" y1="14" x2="145" y2="123" />
  <line style="stroke-dasharray:1" x1="157" y1="14" x2="157" y2="123" />
  <text style="text-anchor:middle" x="157" y="133">4</text>
  <line style="stroke-dasharray:1" x1="169" y1="14" x2="169" y2="123" />
  <line style="stroke-dasharray:1" x1="181" y1="14" x2="181" y2="123" />
  <text style="text-anchor:middle" x="181" y="133">2</text>
  <line style="stroke-dasharray:1" x1="193" y1="14" x2="193" y2="123" />
  <line style="stroke:red" x1="205" y1="14" x2="205" y2="123" />
  <text style="text-anchor:middle" x="205" y="133">0</text>
  <line style="stroke-dasharray:1" x1="217" y1="14" x2="217" y2="123" />
  <line style="stroke-dasharray:1" x1="229" y1="14" x2="229" y2="123" />
  <text style="text-anchor:middle" x="229" y="133">22</text>
  <line style="stroke-dasharray:1" x1="241" y1="14" x2="241" y2="123" />
  <line style="stroke-dasharray:1" x1="253" y1="14" x2="253" y2="123" />
  <text style="text-anchor:middle" x="253" y="133">20</text>
  <line style="stroke-dasharray:1" x1="265" y1="14" x2="265" y2="123" />
  <line style="stroke-dasharray:1" x1="277" y1="14" x2="277" y2="123" />
  <text style="text-anchor:middle" x="277" y="133">18</text>
  <line style="stroke-dasharray:1" x1="289" y1="14" x2="289" y2="123" />
  <line style="stroke-dasharray:1" x1="301" y1="14" x2="301" y2="123" />
  <text style="text-anchor:middle" x="301" y="133">16</text>
  <line style="stroke-dasharray:1" x1="313" y1="14" x2="313" y2="123" />
  <line style="stroke-dasharray:1" x1="325" y1="14" x2="325" y2="123" />
  <text style="text-anchor:middle" x="325" y="133">14</text>
  <line style="stroke-dasharray:1" x1="337" y1="14" x2="337" y2="123" />
  <line style="stroke-dasharray:1" x1="349" y1="14" x2="349" y2="123" />
  <text style="text-anchor:middle" x="349" y="133">12</text>
  <line style="stroke-dasharray:1" x1="361" y1="14" x2="361" y2="123" />
  <line style="stroke-dasharray:1" x1="373" y1="14" x2="373" y2="123" />
  <text style="text-anchor:middle" x="373" y="133">10</text>
  <line style="stroke-dasharray:1" x1="385" y1="14" x2="385" y2="123" />
  <line style="stroke-dasharray:1" x1="397" y1="14" x2="397" y2="123" />
  <text style="text-anchor:middle" x="397" y="133">8</text>
  <line style="stroke-dasharray:1" x1="409" y1="14" x2="409" y2="123" />
  <line style="stroke-dasharray:1" x1="421" y1="14" x2="421" y2="123" />
  <text style="text-anchor:middle" x="421" y="133">6</text>
  <line style="stroke-dasharray:1" x1="433" y1="14" x2="433" y2="123" />
  <line style="stroke-dasharray:1" x1="445" y1="14" x2="445" y2="123" />
  <text style="text-anchor:middle" x="445" y="133">4</text>
  <line style="stroke-dasharray:1" x1="457" y1="14" x2="457" y2="123" />
  <line style="stroke-dasharray:1" x1="469" y1="14" x2="469" y2="123" />
  <text style="text-anchor:middle" x="469" y="133">2</text>
  <polygon style="fill:red;stroke:red;fill-opacity:1;" points="51,121 57,118 57,124" />
  <!-- Temperature -->
  <polyline style="fill:none;stroke:blue" points="55,55 56,58 57,58 58,59 59,58 60,58 61,58 62,59 63,58 64,58 65,59 66,60 67,61 68,62 69,63 70,63 71,63 72,63 73,64 74,62 75,61 76,58 77,56 78,53 79,51 80,48 81,46 82,44 83,43 84,43 85,43 86,43 87,46 88,48 89,52 90,54 91,56 92,58 93,60 94,60 95,61 96,62 97,61 98,60 99,60 100,58 101,57 102,57 103,57 104,57 105,57 106,57 107,58 108,58 109,59 110,60 111,61 112,64 113,66 114,73 115,78 116,80 117,80 118,80 119,80 120,80 121,81 122,81 123,81 124,81 125,81 126,82 127,82 128,82 129,82 130,82 131,82 132,82 133,83 134,83 135,84 136,83 137,83 138,83 139,82 140,82 141,82 142,82 143,82 144,82 145,81 146,81 147,81 148,81 149,81 150,82 151,82 152,82 153,83 154,82 155,82 156,81 157,80 158,80 159,80 160,81 161,81 162,81 163,82 164,82 165,82 166,82 167,82 168,83 169,83 170,83 171,83 172,83 173,83 174,84 175,85 176,84 177,85 178,85 179,84 180,84 181,82 182,82 183,82 184,82 185,82 186,81 187,81 188,81 189,80 190,79 191,79 192,79 193,79 194,79 195,79 196,78 197,78 198,78 199,77 200,77 201,77 202,76 203,76 204,76 205,76 206,76 207,76 208,77 209,77 210,77 211,77 212,77 213,77 214,77 215,77 216,77 217,76 218,76 219,76 220,75 221,75 222,76 223,76 224,76 225,76 226,75 227,74 228,74 229,74 230,74 231,74 232,75 233,75 234,76 235,76 236,75 237,75 238,76 239,76 240,76 241,76 242,76 243,76 244,76 245,76 246,76 247,76 248,76 249,75 250,76 251,76 252,76 253,76 254,75 255,74 256,74 257,73 258,73 259,72 260,73 261,74 262,74 263,73 264,72 265,72 266,72 267,72 268,72 269,72 270,72 271,72 272,71 273,71 274,71 275,71 276,70 277,71 278,71 279,70 280,70 281,70 282,71 283,71 284,70 285,69 286,69 287,69 288,68 289,68 290,68 291,68 292,68 293,68 294,69 295,69 296,70 297,70 298,70 299,69 300,70 301,70 302,68 303,69 304,68 305,68 306,67 307,67 308,67 309,67 310,67 311,66 312,66 313,66 314,67 315,67 316,68 317,67 318,66 319,65 320,64 321,64 322,64 323,64 324,62 325,62 326,62 327,62 328,62 329,60 330,58 331,57 332,54 333,54 334,52 335,49 336,46 337,46 338,44 339,44 340,43 341,42 342,44 343,44 344,43 345,39 346,37 347,36 348,32 349,25 350,19 351,19 352,16 353,15 354,14 355,15 356,17 357,20 358,20 359,23 360,24 361,24 362,21 363,21 364,23 365,23 366,23 367,25 368,35 369,40 370,42 371,46 372,44 373,44 374,43 375,40 376,38 377,34 378,37 379,39 380,42 381,45 382,51 383,61 384,71 385,79 386,86 387,85 388,87 389,92 390,93 391,96 392,97 393,97 394,98 395,100 396,101 397,102 398,103 399,104 400,104 401,105 402,104 403,104 404,105 405,105 406,106 407,106 408,107 409,108 410,109 411,110 412,111 413,112 414,113 415,114 416,114 417,114 418,114 419,114 420,114 421,114 422,115 423,114 424,114 425,115 426,115 427,114 428,115 429,114 430,114 431,113 432,113 433,112 434,113 435,114 436,113 437,113 438,114 439,114 440,114 441,114 442,114 443,114 444,113 445,114 446,114 447,114 448,113 449,113 450,113 451,114 452,114 453,114 454,114 455,114 456,114 457,114 458,115 459,114 460,114 461,115 462,115 463,115 464,114 465,115 466,116 467,118 468,119 469,121 " />
</svg>