<?xml version="1.0" encoding="utf-8" standalone="no"?>
<svg xmlns="http://www.w3.org/2000/svg" xmlns:xlink="http://www.w3.org/1999/xlink" width="500" height="135">
	<!-- Created by: GoveeBTTempLogger Version 2.20211127-2 Built on: Nov 27 2021 at 11:38:38 -->
	<style>
		text { font-family: sans-serif; font-size: 12px; fill: black; }
		line { stroke: black; }
		polygon { fill-opacity: 0.5; }
	@media only screen and (prefers-color-scheme: dark) {
		text { fill: grey; }
		line { stroke: grey; }
	}
	</style>
	<rect style="fill-opacity:0;stroke:grey;stroke-width:2" width="500" height="135" />
	<text x="66" y="12">Outside (E3:5E:CC:21:5C:0F)</text>
	<text style="text-anchor:end" x="470" y="12">2021-11-28 00:00:00</text>
	<text style="fill:blue;text-anchor:middle" x="12" y="67" transform="rotate(270 12,67)">Temperature (51.9°F)</text>
	<text style="fill:green;text-anchor:middle" x="24" y="67" transform="rotate(270 24,67)">Humidity (99.8%)</text>
	<text style="fill:OrangeRed" text-anchor="middle" x="36" y="67" transform="rotate(270 36,67)">Battery (93%)</text>
	<!-- Humidity Max -->
	<polygon style="fill:lime;stroke:green" points="67,120 66,14 67,14 68,14 69,14 70,14 71,14 72,14 73,14 74,14 75,14 76,14 77,14 78,14 79,14 80,14 81,14 82,14 83,18 84,14 85,17 86,16 87,15 88,17 89,14 90,14 91,14 92,14 93,20 94,15 95,14 96,14 97,14 98,14 99,15 100,14 101,14 102,14 103,14 104,14 105,14 106,16 107,17 108,25 109,14 110,16 111,17 112,14 113,14 114,14 115,14 116,14 117,14 118,17 119,14 120,18 121,16 122,14 123,14 124,14 125,19 126,16 127,14 128,14 129,14 130,14 131,14 132,19 133,14 134,14 135,14 136,14 137,14 138,17 139,18 140,15 141,22 142,14 143,21 144,23 145,17 146,30 147,15 148,28 149,27 150,23 151,22 152,17 153,21 154,30 155,25 156,16 157,14 158,18 159,20 160,24 161,26 162,27 163,27 164,22 165,22 166,21 167,17 168,27 169,21 170,14 171,22 172,34 173,37 174,30 175,21 176,21 177,20 178,30 179,14 180,25 181,18 182,29 183,21 184,30 185,36 186,20 187,23 188,38 189,26 190,27 191,26 192,21 193,34 194,33 195,32 196,23 197,29 198,34 199,22 200,25 201,24 202,24 203,22 204,18 205,25 206,19 207,22 208,27 209,20 210,16 211,22 212,19 213,21 214,26 215,34 216,28 217,26 218,46 219,41 220,37 221,28 222,20 223,22 224,30 225,33 226,29 227,29 228,37 229,24 230,26 231,24 232,14 233,14 234,14 235,16 236,28 237,32 238,29 239,18 240,23 241,34 242,32 243,25 244,26 245,22 246,25 247,28 248,21 249,25 250,18 251,33 252,19 253,19 254,22 255,19 256,24 257,29 258,25 259,28 260,19 261,20 262,20 263,18 264,16 265,30 266,24 267,23 268,24 269,23 270,24 271,25 272,19 273,17 274,17 275,40 276,28 277,18 278,27 279,32 280,26 281,21 282,18 283,21 284,32 285,27 286,21 287,39 288,39 289,33 290,38 291,40 292,44 293,62 294,54 295,34 296,33 297,27 298,32 299,22 300,23 301,23 302,21 303,23 304,25 305,27 306,22 307,28 308,25 309,22 310,22 311,30 312,21 313,18 314,23 315,18 316,17 317,23 318,20 319,22 320,19 321,23 322,20 323,24 324,22 325,24 326,24 327,22 328,24 329,25 330,15 331,18 332,30 333,19 334,18 335,16 336,21 337,18 338,21 339,17 340,22 341,19 342,22 343,21 344,17 345,16 346,21 347,22 348,22 349,20 350,18 351,16 352,16 353,21 354,25 355,24 356,33 357,21 358,18 359,25 360,20 361,19 362,18 363,19 364,19 365,16 366,17 367,18 368,18 369,19 370,24 371,26 372,23 373,21 374,15 375,24 376,20 377,19 378,17 379,16 380,20 381,16 382,18 383,22 384,21 385,14 386,14 387,18 388,14 389,14 390,15 391,15 392,15 393,15 394,16 395,15 396,16 397,17 398,16 399,19 400,15 401,15 402,21 403,19 404,14 405,16 406,17 407,25 408,20 409,17 410,20 411,25 412,18 413,17 414,20 415,20 416,16 417,17 418,15 419,16 420,16 421,22 422,20 423,17 424,19 425,17 426,19 427,20 428,18 429,15 430,15 431,31 432,20 433,22 434,21 435,20 436,15 437,19 438,22 439,24 440,19 441,16 442,17 443,19 444,19 445,20 446,22 447,20 448,21 449,23 450,44 451,19 452,21 453,22 454,16 455,18 456,16 457,20 458,21 459,21 460,18 461,23 462,33 463,40 464,42 465,31 466,18 467,16 468,18 469,18 469,120" />
	<!-- Humidity Min -->
	<polygon style="fill:lime;stroke:green" points="67,120 66,19 67,14 68,32 69,42 70,31 71,37 72,31 73,36 74,46 75,44 76,60 77,56 78,36 79,14 80,20 81,16 82,22 83,49 84,75 85,79 86,36 87,48 88,49 89,26 90,40 91,18 92,43 93,77 94,69 95,42 96,16 97,35 98,32 99,59 100,57 101,36 102,27 103,81 104,51 105,66 106,66 107,35 108,57 109,43 110,35 111,56 112,51 113,58 114,44 115,46 116,58 117,66 118,50 119,37 120,65 121,48 122,61 123,58 124,25 125,58 126,56 127,35 128,47 129,73 130,65 131,69 132,69 133,74 134,80 135,47 136,59 137,46 138,80 139,68 140,70 141,80 142,52 143,70 144,44 145,77 146,81 147,74 148,74 149,71 150,93 151,96 152,84 153,80 154,74 155,56 156,78 157,79 158,56 159,64 160,90 161,82 162,84 163,76 164,66 165,55 166,77 167,78 168,62 169,58 170,72 171,72 172,101 173,82 174,91 175,83 176,83 177,91 178,55 179,48 180,91 181,86 182,91 183,90 184,74 185,59 186,90 187,95 188,104 189,88 190,87 191,87 192,82 193,96 194,94 195,70 196,73 197,100 198,96 199,84 200,63 201,76 202,70 203,79 204,92 205,93 206,76 207,86 208,74 209,62 210,80 211,64 212,72 213,87 214,73 215,80 216,79 217,90 218,104 219,98 220,97 221,92 222,95 223,76 224,80 225,102 226,79 227,93 228,96 229,104 230,87 231,85 232,51 233,61 234,94 235,76 236,93 237,104 238,99 239,95 240,65 241,86 242,86 243,85 244,99 245,93 246,89 247,93 248,87 249,67 250,60 251,88 252,78 253,49 254,58 255,67 256,74 257,86 258,88 259,93 260,67 261,97 262,89 263,91 264,81 265,71 266,93 267,96 268,94 269,95 270,78 271,76 272,88 273,86 274,74 275,103 276,79 277,60 278,109 279,94 280,83 281,95 282,81 283,39 284,90 285,90 286,105 287,111 288,113 289,121 290,113 291,114 292,112 293,107 294,104 295,86 296,95 297,105 298,79 299,103 300,49 301,94 302,100 303,84 304,87 305,91 306,83 307,100 308,97 309,110 310,43 311,81 312,68 313,68 314,42 315,92 316,71 317,37 318,68 319,82 320,59 321,85 322,95 323,92 324,55 325,102 326,100 327,101 328,80 329,88 330,106 331,61 332,61 333,55 334,74 335,81 336,66 337,76 338,54 339,81 340,87 341,55 342,76 343,80 344,40 345,45 346,63 347,56 348,49 349,74 350,45 351,24 352,34 353,32 354,80 355,54 356,76 357,76 358,49 359,74 360,34 361,33 362,33 363,60 364,34 365,25 366,34 367,39 368,49 369,37 370,57 371,81 372,49 373,40 374,54 375,74 376,48 377,51 378,47 379,51 380,49 381,43 382,60 383,76 384,82 385,22 386,47 387,34 388,42 389,48 390,47 391,43 392,50 393,29 394,30 395,27 396,28 397,34 398,31 399,39 400,62 401,33 402,42 403,50 404,60 405,57 406,55 407,27 408,38 409,42 410,48 411,52 412,41 413,43 414,42 415,58 416,38 417,45 418,33 419,50 420,39 421,66 422,56 423,84 424,68 425,66 426,82 427,62 428,68 429,42 430,45 431,71 432,36 433,60 434,42 435,48 436,58 437,62 438,37 439,48 440,32 441,65 442,28 443,61 444,47 445,70 446,67 447,58 448,63 449,67 450,106 451,90 452,67 453,32 454,42 455,43 456,91 457,77 458,76 459,76 460,53 461,42 462,72 463,71 464,103 465,88 466,55 467,53 468,66 469,74 469,120" />
	<line x1="64" y1="14" x2="472" y2="14"/>
	<text style="fill:blue;text-anchor:end" x="64" y="19">107.7</text>
	<text style="fill:green" x="472" y="18">100.0</text>
	<line x1="64" y1="121" x2="472" y2="121"/>
	<text style="fill:blue;text-anchor:end" x="64" y="126">27.3</text>
	<text style="fill:green" x="472" y="125">26.1</text>
	<line x1="66" y1="14" x2="66" y2="121"/>
	<line x1="470" y1="14" x2="470" y2="121"/>
	<line style="stroke-dasharray:1" x1="64" y1="40" x2="472" y2="40" />
	<text style="fill:blue;text-anchor:end" x="64" y="44">87.6</text>
	<text style="fill:green" x="472" y="44">81.5</text>
	<line style="stroke-dasharray:1" x1="64" y1="66" x2="472" y2="66" />
	<text style="fill:blue;text-anchor:end" x="64" y="70">67.5</text>
	<text style="fill:green" x="472" y="70">63.0</text>
	<line style="stroke-dasharray:1" x1="64" y1="92" x2="472" y2="92" />
	<text style="fill:blue;text-anchor:end" x="64" y="96">47.4</text>
	<text style="fill:green" x="472" y="96">44.6</text>
	<!-- FreezingLine = 114 -->
	<line style="fill:red;stroke:red;stroke-dasharray:1" x1="64" y1="114" x2="472" y2="114" />
	<text style="text-anchor:middle" x="79" y="133">Nov</text>
	<line style="stroke-dasharray:1" x1="93" y1="14" x2="93" y2="123" />
	<text style="text-anchor:middle" x="110" y="133">Oct</text>
	<line style="stroke-dasharray:1" x1="124" y1="14" x2="124" y2="123" />
	<text style="text-anchor:middle" x="140" y="133">Sep</text>
	<line style="stroke-dasharray:1" x1="154" y1="14" x2="154" y2="123" />
	<text style="text-anchor:middle" x="171" y="133">Aug</text>
	<line style="stroke-dasharray:1" x1="185" y1="14" x2="185" y2="123" />
	<text style="text-anchor:middle" x="202" y="133">Jul</text>
	<line style="stroke-dasharray:1" x1="216" y1="14" x2="216" y2="123" />
	<text style="text-anchor:middle" x="232" y="133">Jun</text>
	<line style="stroke-dasharray:1" x1="246" y1="14" x2="246" y2="123" />
	<text style="text-anchor:middle" x="263" y="133">May</text>
	<line style="stroke-dasharray:1" x1="277" y1="14" x2="277" y2="123" />
	<text style="text-anchor:middle" x="293" y="133">Apr</text>
	<line style="stroke-dasharray:1" x1="307" y1="14" x2="307" y2="123" />
	<text style="text-anchor:middle" x="324" y="133">Mar</text>
	<line style="stroke-dasharray:1" x1="338" y1="14" x2="338" y2="123" />
	<text style="text-anchor:middle" x="352" y="133">Feb</text>
	<line style="stroke-dasharray:1" x1="366" y1="14" x2="366" y2="123" />
	<text style="text-anchor:middle" x="383" y="133">Jan</text>
	<line style="stroke:red" x1="397" y1="14" x2="397" y2="123" />
	<text style="text-anchor:middle" x="414" y="133">Dec</text>
	<line style="stroke-dasharray:1" x1="428" y1="14" x2="428" y2="123" />
	<text style="text-anchor:middle" x="444" y="133">Nov</text>
	<line style="stroke-dasharray:1" x1="458" y1="14" x2="458" y2="123" />
	<polygon style="fill:red;stroke:red;fill-opacity:1;" points="63,121 69,118 69,124" />
	<!-- Temperature MinMax -->
	<polygon style="fill:blue;stroke:blue" points="67,87 68,90 69,90 70,87 71,91 72,90 73,87 74,85 75,90 76,84 77,86 78,75 79,77 80,86 81,79 82,80 83,79 84,79 85,71 86,90 87,88 88,77 89,75 90,73 91,87 92,78 93,71 94,82 95,83 96,75 97,80 98,80 99,77 100,78 101,78 102,79 103,62 104,71 105,64 106,63 107,76 108,66 109,77 110,76 111,74 112,86 113,73 114,79 115,77 116,71 117,67 118,71 119,76 120,60 121,76 122,64 123,59 124,75 125,74 126,66 127,73 128,68 129,47 130,54 131,50 132,49 133,49 134,47 135,65 136,58 137,67 138,55 139,65 140,59 141,47 142,67 143,51 144,64 145,40 146,43 147,48 148,44 149,41 150,50 151,38 152,46 153,54 154,59 155,68 156,45 157,47 158,64 159,57 160,44 161,49 162,51 163,61 164,57 165,63 166,46 167,48 168,59 169,53 170,43 171,43 172,24 173,36 174,29 175,41 176,41 177,47 178,53 179,55 180,34 181,35 182,39 183,39 184,46 185,59 186,38 187,30 188,31 189,35 190,39 191,39 192,41 193,41 194,42 195,59 196,55 197,35 198,38 199,43 200,58 201,51 202,54 203,47 204,39 205,41 206,45 207,41 208,54 209,61 210,46 211,56 212,50 213,36 214,44 215,44 216,43 217,32 218,14 219,23 220,18 221,31 222,34 223,53 224,45 225,30 226,47 227,42 228,43 229,42 230,46 231,52 232,63 233,53 234,45 235,63 236,59 237,52 238,51 239,54 240,75 241,59 242,52 243,41 244,30 245,37 246,45 247,50 248,59 249,66 250,66 251,62 252,57 253,71 254,71 255,67 256,67 257,67 258,69 259,64 260,68 261,44 262,51 263,50 264,57 265,64 266,59 267,53 268,53 269,64 270,69 271,66 272,56 273,62 274,70 275,55 276,65 277,65 278,48 279,54 280,70 281,59 282,68 283,85 284,66 285,62 286,51 287,47 288,50 289,44 290,48 291,47 292,52 293,61 294,69 295,78 296,68 297,75 298,84 299,70 300,89 301,67 302,65 303,83 304,69 305,69 306,68 307,70 308,71 309,70 310,89 311,73 312,81 313,71 314,89 315,64 316,77 317,96 318,80 319,76 320,79 321,74 322,73 323,82 324,89 325,72 326,73 327,72 328,73 329,79 330,69 331,87 332,83 333,84 334,77 335,73 336,86 337,78 338,84 339,77 340,74 341,86 342,81 343,76 344,83 345,83 346,86 347,87 348,93 349,81 350,87 351,96 352,107 353,110 354,106 355,109 356,89 357,88 358,94 359,82 360,89 361,87 362,92 363,83 364,94 365,89 366,90 367,90 368,91 369,92 370,87 371,92 372,95 373,100 374,91 375,91 376,92 377,85 378,92 379,85 380,77 381,90 382,73 383,79 384,79 385,82 386,92 387,90 388,92 389,92 390,83 391,84 392,93 393,89 394,91 395,91 396,87 397,86 398,93 399,99 400,86 401,90 402,91 403,93 404,87 405,97 406,83 407,89 408,84 409,86 410,88 411,82 412,89 413,90 414,89 415,96 416,99 417,91 418,95 419,85 420,86 421,81 422,84 423,77 424,74 425,87 426,73 427,84 428,80 429,93 430,91 431,77 432,90 433,82 434,88 435,89 436,91 437,72 438,88 439,86 440,90 441,73 442,92 443,78 444,92 445,81 446,90 447,91 448,81 449,95 450,85 451,94 452,87 453,77 454,68 455,79 456,67 457,73 458,71 459,67 460,76 461,80 462,75 463,87 464,88 465,84 466,91 467,84 468,76 469,66 469,93 468,99 467,104 466,103 465,102 464,108 463,110 462,95 461,93 460,92 459,93 458,102 457,100 456,101 455,90 454,80 453,95 452,107 451,107 450,108 449,114 448,108 447,109 446,102 445,101 444,104 443,96 442,95 441,95 440,96 439,97 438,96 437,101 436,104 435,99 434,99 433,99 432,96 431,94 430,106 429,106 428,103 427,107 426,108 425,108 424,106 423,109 422,96 421,96 420,93 419,105 418,106 417,108 416,114 415,103 414,98 413,100 412,95 411,96 410,96 409,96 408,94 407,94 406,112 405,116 404,118 403,111 402,100 401,111 400,113 399,105 398,102 397,95 396,96 395,103 394,107 393,99 392,100 391,103 390,104 389,105 388,109 387,100 386,97 385,95 384,101 383,103 382,98 381,102 380,96 379,106 378,106 377,108 376,101 375,112 374,117 373,105 372,107 371,108 370,106 369,102 368,103 367,101 366,98 365,98 364,102 363,103 362,99 361,96 360,99 359,104 358,109 357,114 356,109 355,117 354,120 353,121 352,115 351,111 350,104 349,106 348,107 347,99 346,104 345,99 344,103 343,107 342,109 341,105 340,104 339,109 338,101 337,101 336,100 335,108 334,105 333,97 332,99 331,108 330,114 329,107 328,106 327,109 326,110 325,108 324,104 323,107 322,113 321,111 320,101 319,100 318,101 317,102 316,100 315,107 314,98 313,100 312,101 311,96 310,106 309,111 308,110 307,108 306,101 305,100 304,101 303,100 302,110 301,105 300,99 299,103 298,105 297,105 296,109 295,106 294,99 293,99 292,98 291,95 290,94 289,93 288,92 287,92 286,95 285,92 284,93 283,92 282,94 281,93 280,95 279,91 278,90 277,87 276,90 275,93 274,92 273,92 272,97 271,91 270,94 269,97 268,89 267,97 266,95 265,86 264,91 263,91 262,91 261,89 260,89 259,94 258,97 257,93 256,92 255,90 254,85 253,88 252,86 251,87 250,87 249,90 248,97 247,89 246,87 245,81 244,78 243,78 242,83 241,86 240,92 239,95 238,94 237,90 236,87 235,83 234,85 233,79 232,79 231,82 230,82 229,88 228,84 227,85 226,78 225,77 224,73 223,80 222,80 221,75 220,69 219,65 218,59 217,71 216,73 215,71 214,73 213,76 212,78 211,79 210,80 209,79 208,82 207,79 206,80 205,82 204,83 203,80 202,80 201,80 200,79 199,80 198,80 197,83 196,76 195,78 194,82 193,82 192,77 191,78 190,78 189,76 188,77 187,77 186,80 185,72 184,73 183,79 182,78 181,78 180,75 179,75 178,77 177,81 176,81 175,79 174,74 173,67 172,69 171,72 170,77 169,77 168,80 167,82 166,79 165,78 164,80 163,82 162,83 161,85 160,86 159,77 158,81 157,88 156,85 155,83 154,85 153,92 152,89 151,87 150,85 149,74 148,77 147,83 146,73 145,79 144,75 143,79 142,83 141,86 140,88 139,84 138,94 137,83 136,85 135,87 134,86 133,89 132,84 131,83 130,86 129,87 128,82 127,85 126,86 125,85 124,85 123,92 122,94 121,87 120,88 119,89 118,92 117,98 116,100 115,96 114,95 113,101 112,103 111,95 110,92 109,86 108,83 107,90 106,90 105,98 104,88 103,92 102,88 101,88 100,90 99,88 98,89 97,92 96,93 95,99 94,102 93,101 92,105 91,95 90,91 89,91 88,97 87,99 86,100 85,101 84,96 83,97 82,94 81,93 80,93 79,86 78,101 77,109 76,113 75,101 74,101 73,102 72,106 71,106 70,103 69,104 68,99 67,94 " />
	<!-- Battery -->
	<polyline style="fill:none;stroke:OrangeRed" points="67,21 68,21 69,21 70,21 71,21 72,21 73,20 74,20 75,20 76,20 77,20 78,19 79,18 80,18 81,18 82,18 83,18 84,18 85,19 86,18 87,18 88,17 89,17 90,17 91,17 92,17 93,17 94,17 95,17 96,16 97,16 98,16 99,15 100,15 101,15 102,15 103,15 104,15 105,15 106,15 107,15 108,15 109,15 110,15 111,15 112,15 113,15 114,15 115,14 116,14 117,14 118,14 119,14 120,14 121,14 122,14 123,14 124,14 125,14 126,14 127,14 128,14 129,14 130,14 131,14 132,14 133,14 134,14 135,14 136,14 137,14 138,14 139,14 140,14 141,14 142,14 143,14 144,14 145,14 146,14 147,14 148,14 149,14 150,14 151,14 152,14 153,14 154,14 155,14 156,14 157,14 158,14 159,14 160,14 161,14 162,14 163,14 164,14 165,14 166,14 167,14 168,14 169,14 170,14 171,14 172,14 173,14 174,14 175,14 176,14 177,14 178,14 179,14 180,14 181,14 182,14 183,14 184,14 185,14 186,14 187,14 188,14 189,14 190,14 191,14 192,14 193,14 194,14 195,14 196,14 197,14 198,14 199,14 200,14 201,14 202,14 203,14 204,14 205,14 206,14 207,14 208,14 209,14 210,14 211,14 212,14 213,14 214,14 215,14 216,14 217,14 218,14 219,14 220,14 221,14 222,14 223,14 224,14 225,14 226,14 227,14 228,14 229,14 230,14 231,14 232,14 233,14 234,14 235,14 236,14 237,14 238,14 239,14 240,14 241,14 242,14 243,14 244,14 245,14 246,14 247,14 248,14 249,14 250,14 251,14 252,14 253,14 254,14 255,14 256,14 257,14 258,14 259,14 260,14 261,14 262,14 263,14 264,14 265,14 266,14 267,14 268,14 269,14 270,14 271,14 272,14 273,14 274,14 275,14 276,14 277,14 278,14 279,14 280,14 281,14 282,14 283,14 284,14 285,14 286,14 287,14 288,14 289,14 290,14 291,14 292,14 293,14 294,14 295,14 296,14 297,14 298,14 299,14 300,14 301,14 302,14 303,14 304,14 305,14 306,14 307,14 308,14 309,14 310,14 311,14 312,14 313,14 314,14 315,14 316,14 317,14 318,14 319,14 320,14 321,14 322,14 323,14 324,14 325,14 326,14 327,14 328,14 329,14 330,14 331,14 332,14 333,14 334,14 335,14 336,14 337,14 338,14 339,14 340,14 341,14 342,14 343,14 344,14 345,14 346,14 347,14 348,14 349,14 350,15 351,16 352,16 353,16 354,16 355,15 356,14 357,14 358,14 359,14 360,14 361,14 362,14 363,14 364,14 365,14 366,14 367,14 368,14 369,14 370,14 371,14 372,14 373,14 374,14 375,14 376,14 377,14 378,14 379,14 380,14 381,14 382,14 383,14 384,14 385,14 386,14 387,14 388,14 389,14 390,14 391,14 392,14 393,14 394,14 395,14 396,14 397,14 398,15 399,14 400,15 401,14 402,15 403,15 404,16 405,15 406,14 407,14 408,14 409,14 410,14 411,14 412,14 413,14 414,14 415,15 416,15 417,14 418,14 419,14 420,14 421,14 422,14 423,14 424,14 425,14 426,14 427,14 428,14 429,14 430,14 431,14 432,14 433,14 434,14 435,14 436,14 437,14 438,14 439,14 440,14 441,14 442,14 443,14 444,15 445,14 446,15 447,15 448,15 449,15 450,14 451,14 452,14 453,14 454,14 455,14 456,14 457,14 458,14 459,14 460,14 461,14 462,14 463,15 464,15 465,14 466,14 467,14 468,14 469,14 " />
</svg>
