<?xml version="1.0" encoding="utf-8" standalone="no"?>
<svg xmlns="http://www.w3.org/2000/svg" xmlns:xlink="http://www.w3.org/1999/xlink" width="500" height="135">
	<style>
		text {
			font-family: Consolas;
			font-size: 12px;
		}
		line {
			stroke: black;
		}
	</style>
	<rect width="500" height="135" stroke="grey" stroke-width="2" fill-opacity="0" />
	<text x="54" y="12">Outside (E3:5E:CC:21:5C:0F)</text>
	<text fill="blue" text-anchor="middle" x="12" y="67" transform="rotate(270 12,67)">Temperature (39.0°F)</text>
	<text fill="green" text-anchor="middle" x="24" y="67" transform="rotate(270 24,67)">Humidity (94.1%)</text>
	<text text-anchor="end" x="470" y="12">2021-01-24 19:24:50</text>
	<polygon style="fill:lime;stroke:green" points="55,120 54,33 55,33 56,34 57,36 58,36 59,36 60,35 61,35 62,36 63,36 64,36 65,36 66,36 67,37 68,37 69,37 70,37 71,37 72,36 73,35 74,36 75,39 76,36 77,36 78,36 79,36 80,38 81,38 82,39 83,39 84,39 85,39 86,40 87,40 88,42 89,42 90,42 91,41 92,43 93,43 94,44 95,45 96,45 97,47 98,48 99,49 100,48 101,51 102,49 103,48 104,49 105,51 106,51 107,48 108,45 109,49 110,45 111,44 112,46 113,44 114,47 115,48 116,45 117,51 118,50 119,50 120,45 121,47 122,44 123,47 124,47 125,48 126,47 127,47 128,49 129,49 130,52 131,53 132,53 133,54 134,57 135,55 136,52 137,50 138,51 139,48 140,53 141,53 142,52 143,52 144,51 145,52 146,53 147,54 148,56 149,51 150,50 151,47 152,48 153,49 154,49 155,51 156,50 157,46 158,46 159,45 160,44 161,43 162,44 163,43 164,43 165,45 166,43 167,43 168,41 169,39 170,39 171,39 172,38 173,38 174,38 175,38 176,37 177,38 178,39 179,40 180,40 181,40 182,39 183,40 184,40 185,40 186,41 187,41 188,42 189,43 190,43 191,44 192,44 193,45 194,44 195,44 196,42 197,43 198,43 199,42 200,43 201,44 202,44 203,45 204,47 205,45 206,46 207,42 208,38 209,46 210,46 211,41 212,44 213,44 214,42 215,40 216,40 217,38 218,38 219,38 220,37 221,37 222,36 223,36 224,35 225,35 226,34 227,33 228,31 229,32 230,31 231,32 232,31 233,31 234,31 235,32 236,33 237,33 238,33 239,36 240,37 241,38 242,38 243,37 244,37 245,38 246,37 247,37 248,38 249,39 250,41 251,47 252,49 253,51 254,52 255,55 256,53 257,54 258,56 259,55 260,56 261,54 262,54 263,57 264,58 265,59 266,58 267,59 268,59 269,59 270,60 271,60 272,59 273,61 274,71 275,77 276,78 277,78 278,80 279,83 280,84 281,85 282,85 283,86 284,88 285,89 286,90 287,92 288,94 289,93 290,93 291,89 292,88 293,88 294,87 295,87 296,88 297,85 298,87 299,85 300,84 301,88 302,89 303,86 304,86 305,88 306,88 307,90 308,92 309,94 310,95 311,97 312,97 313,97 314,97 315,97 316,97 317,97 318,97 319,98 320,98 321,99 322,100 323,101 324,100 325,101 326,101 327,100 328,100 329,100 330,100 331,101 332,101 333,102 334,104 335,103 336,105 337,103 338,102 339,102 340,100 341,99 342,100 343,99 344,100 345,100 346,99 347,96 348,95 349,94 350,90 351,91 352,78 353,77 354,75 355,72 356,72 357,73 358,70 359,71 360,74 361,75 362,74 363,76 364,77 365,78 366,79 367,80 368,80 369,84 370,86 371,86 372,88 373,90 374,92 375,94 376,96 377,98 378,99 379,100 380,100 381,100 382,104 383,107 384,108 385,108 386,111 387,112 388,111 389,114 390,110 391,109 392,109 393,107 394,108 395,107 396,106 397,107 398,107 399,110 400,103 401,102 402,99 403,99 404,100 405,96 406,95 407,91 408,90 409,96 410,98 411,97 412,97 413,95 414,92 415,89 416,97 417,102 418,106 419,111 420,114 421,118 422,118 423,118 424,114 425,120 426,121 427,119 428,103 429,95 430,102 431,95 432,110 433,87 434,85 435,88 436,78 437,71 438,59 439,57 440,44 441,41 442,41 443,40 444,39 445,35 446,35 447,32 448,30 449,30 450,29 451,28 452,27 453,27 454,25 455,23 456,22 457,21 458,20 459,19 460,19 461,18 462,17 463,16 464,16 465,15 466,15 467,14 468,14 469,14 469,120" />
	<line x1="52" y1="14" x2="472" y2="14"/>
	<text fill="blue" text-anchor="end" x="52" y="19">49.3</text>
	<text fill="green" x="472" y="18">98.6</text>
	<line x1="52" y1="121" x2="472" y2="121"/>
	<text fill="blue" text-anchor="end" x="52" y="126">34.1</text>
	<text fill="green" x="472" y="125">73.6</text>
	<line x1="54" y1="14" x2="54" y2="121"/>
	<line x1="470" y1="14" x2="470" y2="121"/>
	<line x1="52" y1="40" x2="472" y2="40" stroke-dasharray="1,1" />
	<text fill="blue" text-anchor="end" x="52" y="44">45.5</text>
	<text fill="green" x="472" y="44">92.3</text>
	<line x1="52" y1="66" x2="472" y2="66" stroke-dasharray="1,1" />
	<text fill="blue" text-anchor="end" x="52" y="70">41.7</text>
	<text fill="green" x="472" y="70">86.1</text>
	<line x1="52" y1="92" x2="472" y2="92" stroke-dasharray="1,1" />
	<text fill="blue" text-anchor="end" x="52" y="96">37.9</text>
	<text fill="green" x="472" y="96">79.8</text>
	<line stroke-dasharray="1,1" x1="67" y1="14" x2="67" y2="123" />
	<line stroke-dasharray="1,1" x1="79" y1="14" x2="79" y2="123" />
	<text text-anchor="middle" x="79" y="133">16</text>
	<line stroke-dasharray="1,1" x1="91" y1="14" x2="91" y2="123" />
	<line stroke-dasharray="1,1" x1="103" y1="14" x2="103" y2="123" />
	<text text-anchor="middle" x="103" y="133">14</text>
	<line stroke-dasharray="1,1" x1="115" y1="14" x2="115" y2="123" />
	<line stroke-dasharray="1,1" x1="127" y1="14" x2="127" y2="123" />
	<text text-anchor="middle" x="127" y="133">12</text>
	<line stroke-dasharray="1,1" x1="139" y1="14" x2="139" y2="123" />
	<line stroke-dasharray="1,1" x1="151" y1="14" x2="151" y2="123" />
	<text text-anchor="middle" x="151" y="133">10</text>
	<line stroke-dasharray="1,1" x1="163" y1="14" x2="163" y2="123" />
	<line stroke-dasharray="1,1" x1="175" y1="14" x2="175" y2="123" />
	<text text-anchor="middle" x="175" y="133">8</text>
	<line stroke-dasharray="1,1" x1="187" y1="14" x2="187" y2="123" />
	<line stroke-dasharray="1,1" x1="199" y1="14" x2="199" y2="123" />
	<text text-anchor="middle" x="199" y="133">6</text>
	<line stroke-dasharray="1,1" x1="211" y1="14" x2="211" y2="123" />
	<line stroke-dasharray="1,1" x1="223" y1="14" x2="223" y2="123" />
	<text text-anchor="middle" x="223" y="133">4</text>
	<line stroke-dasharray="1,1" x1="235" y1="14" x2="235" y2="123" />
	<line stroke-dasharray="1,1" x1="247" y1="14" x2="247" y2="123" />
	<text text-anchor="middle" x="247" y="133">2</text>
	<line stroke-dasharray="1,1" x1="259" y1="14" x2="259" y2="123" />
	<line style="stroke:red" x1="271" y1="14" x2="271" y2="123" />
	<text text-anchor="middle" x="271" y="133">0</text>
	<line stroke-dasharray="1,1" x1="283" y1="14" x2="283" y2="123" />
	<line stroke-dasharray="1,1" x1="295" y1="14" x2="295" y2="123" />
	<text text-anchor="middle" x="295" y="133">22</text>
	<line stroke-dasharray="1,1" x1="307" y1="14" x2="307" y2="123" />
	<line stroke-dasharray="1,1" x1="319" y1="14" x2="319" y2="123" />
	<text text-anchor="middle" x="319" y="133">20</text>
	<line stroke-dasharray="1,1" x1="331" y1="14" x2="331" y2="123" />
	<line stroke-dasharray="1,1" x1="343" y1="14" x2="343" y2="123" />
	<text text-anchor="middle" x="343" y="133">18</text>
	<line stroke-dasharray="1,1" x1="355" y1="14" x2="355" y2="123" />
	<line stroke-dasharray="1,1" x1="367" y1="14" x2="367" y2="123" />
	<text text-anchor="middle" x="367" y="133">16</text>
	<line stroke-dasharray="1,1" x1="379" y1="14" x2="379" y2="123" />
	<line stroke-dasharray="1,1" x1="391" y1="14" x2="391" y2="123" />
	<text text-anchor="middle" x="391" y="133">14</text>
	<line stroke-dasharray="1,1" x1="403" y1="14" x2="403" y2="123" />
	<line stroke-dasharray="1,1" x1="415" y1="14" x2="415" y2="123" />
	<text text-anchor="middle" x="415" y="133">12</text>
	<line stroke-dasharray="1,1" x1="427" y1="14" x2="427" y2="123" />
	<line stroke-dasharray="1,1" x1="439" y1="14" x2="439" y2="123" />
	<text text-anchor="middle" x="439" y="133">10</text>
	<line stroke-dasharray="1,1" x1="451" y1="14" x2="451" y2="123" />
	<line stroke-dasharray="1,1" x1="463" y1="14" x2="463" y2="123" />
	<text text-anchor="middle" x="463" y="133">8</text>
	<polygon stroke="red" fill="red" points="51,121 57,118 57,124" />
	<polyline style="fill:none;stroke:blue" points="55,85 56,83 57,83 58,83 59,82 60,82 61,81 62,80 63,80 64,80 65,79 66,78 67,79 68,78 69,79 70,78 71,78 72,78 73,76 74,77 75,76 76,76 77,75 78,75 79,74 80,74 81,73 82,73 83,72 84,71 85,70 86,69 87,68 88,67 89,66 90,66 91,66 92,66 93,66 94,65 95,65 96,64 97,64 98,63 99,63 100,62 101,61 102,60 103,60 104,62 105,62 106,64 107,66 108,67 109,69 110,70 111,70 112,70 113,70 114,70 115,69 116,69 117,69 118,68 119,66 120,65 121,65 122,65 123,66 124,68 125,69 126,69 127,69 128,68 129,68 130,68 131,68 132,68 133,68 134,67 135,66 136,65 137,65 138,65 139,64 140,64 141,63 142,60 143,60 144,60 145,61 146,61 147,62 148,63 149,64 150,66 151,68 152,69 153,70 154,70 155,70 156,69 157,69 158,69 159,68 160,69 161,69 162,69 163,70 164,71 165,71 166,71 167,71 168,72 169,73 170,75 171,76 172,77 173,78 174,79 175,80 176,81 177,82 178,82 179,82 180,83 181,83 182,83 183,84 184,85 185,85 186,86 187,86 188,86 189,85 190,85 191,85 192,85 193,85 194,84 195,85 196,85 197,85 198,85 199,85 200,86 201,85 202,85 203,84 204,84 205,83 206,82 207,83 208,82 209,82 210,82 211,82 212,82 213,82 214,82 215,82 216,83 217,83 218,82 219,82 220,82 221,82 222,83 223,83 224,84 225,85 226,86 227,86 228,85 229,86 230,86 231,86 232,86 233,85 234,85 235,85 236,84 237,84 238,84 239,83 240,82 241,82 242,82 243,82 244,82 245,82 246,82 247,83 248,82 249,81 250,79 251,76 252,75 253,75 254,75 255,74 256,74 257,74 258,74 259,75 260,76 261,76 262,74 263,73 264,73 265,74 266,74 267,74 268,74 269,75 270,75 271,76 272,75 273,74 274,72 275,72 276,72 277,72 278,72 279,72 280,72 281,72 282,71 283,72 284,71 285,71 286,71 287,70 288,70 289,69 290,69 291,69 292,69 293,69 294,69 295,69 296,69 297,69 298,69 299,69 300,67 301,66 302,65 303,65 304,65 305,65 306,65 307,65 308,65 309,65 310,65 311,65 312,64 313,65 314,65 315,64 316,64 317,64 318,64 319,63 320,64 321,64 322,64 323,64 324,64 325,63 326,64 327,64 328,64 329,64 330,64 331,64 332,64 333,64 334,64 335,64 336,65 337,64 338,64 339,64 340,65 341,65 342,65 343,66 344,66 345,66 346,67 347,67 348,69 349,71 350,72 351,75 352,78 353,79 354,80 355,81 356,82 357,84 358,86 359,87 360,87 361,87 362,86 363,85 364,85 365,83 366,83 367,82 368,80 369,80 370,78 371,77 372,76 373,74 374,73 375,71 376,68 377,67 378,65 379,62 380,60 381,58 382,57 383,56 384,56 385,54 386,53 387,52 388,53 389,53 390,53 391,54 392,54 393,55 394,55 395,55 396,55 397,54 398,53 399,53 400,52 401,52 402,52 403,51 404,52 405,53 406,53 407,54 408,55 409,55 410,56 411,57 412,56 413,56 414,56 415,56 416,51 417,51 418,51 419,50 420,46 421,40 422,34 423,28 424,20 425,16 426,14 427,19 428,19 429,25 430,30 431,29 432,30 433,28 434,29 435,29 436,37 437,47 438,54 439,57 440,72 441,84 442,88 443,87 444,88 445,89 446,92 447,94 448,95 449,98 450,98 451,99 452,100 453,100 454,100 455,101 456,102 457,104 458,105 459,106 460,108 461,108 462,108 463,110 464,112 465,114 466,114 467,117 468,119 469,121 " />
</svg>
