<?xml version="1.0" encoding="utf-8" standalone="no"?>
<svg xmlns="http://www.w3.org/2000/svg" xmlns:xlink="http://www.w3.org/1999/xlink" width="500" height="135">
	<!-- Created by: GoveeBTTempLogger Version 2.20210302-1 Built on: Mar  2 2021 at 10:42:33 -->
	<style>
		text {
			font-family: sans-serif;
			font-size: 12px;
		}
		line {
			stroke: black;
		}
	</style>
	<rect width="500" height="135" stroke="grey" stroke-width="2" fill-opacity="0" />
	<text x="66" y="12">Outside (E3:5E:CC:21:5C:0F)</text>
	<text fill="blue" text-anchor="middle" x="12" y="67" transform="rotate(270 12,67)">Temperature (43.1°F)</text>
	<text fill="green" text-anchor="middle" x="24" y="67" transform="rotate(270 24,67)">Humidity (93.9%)</text>
	<text fill="OrangeRed" text-anchor="middle" x="36" y="67" transform="rotate(270 36,67)">Battery (100%)</text>
	<text text-anchor="end" x="470" y="12">2021-03-02 00:00:00</text>
	<!-- Humidity Max -->
	<polygon style="fill:lime;fill-opacity:0.5;stroke:green" points="67,120 66,18 67,18 68,17 69,17 70,19 71,19 72,20 73,17 74,16 75,16 76,20 77,21 78,19 79,17 80,16 81,16 82,16 83,20 84,23 85,23 86,20 87,18 88,18 89,20 90,19 91,18 92,18 93,18 94,16 95,16 96,17 97,17 98,17 99,19 100,23 101,22 102,20 103,15 104,15 105,19 106,19 107,17 108,16 109,18 110,16 111,16 112,18 113,22 114,14 115,14 116,14 117,14 118,14 119,14 120,15 121,15 122,15 123,15 124,15 125,15 126,16 127,16 128,16 129,15 130,15 131,15 132,19 133,14 134,14 135,16 136,16 137,19 138,16 139,16 140,20 141,18 142,17 143,17 144,19 145,15 146,15 147,15 148,15 149,15 150,15 151,19 152,17 153,17 154,17 155,17 156,18 157,17 158,15 159,15 160,15 161,20 162,20 163,20 164,19 165,15 166,15 167,18 168,21 169,18 170,16 171,16 172,16 173,18 174,19 175,20 176,19 177,19 178,21 179,22 180,19 181,19 182,21 183,16 184,16 185,16 186,16 187,19 188,20 189,17 190,17 191,22 192,31 193,37 194,29 195,18 196,16 197,16 198,17 199,17 200,18 201,18 202,18 203,18 204,18 205,18 206,18 207,17 208,17 209,17 210,17 211,17 212,17 213,17 214,17 215,17 216,17 217,17 218,17 219,19 220,19 221,19 222,19 223,19 224,19 225,20 226,21 227,18 228,18 229,19 230,19 231,20 232,20 233,20 234,20 235,18 236,18 237,23 238,31 239,34 240,44 241,22 242,21 243,21 244,30 245,20 246,20 247,21 248,23 249,23 250,23 251,23 252,24 253,28 254,32 255,31 256,30 257,24 258,20 259,20 260,28 261,26 262,26 263,35 264,35 265,41 266,34 267,34 268,25 269,25 270,26 271,21 272,21 273,25 274,25 275,26 276,26 277,26 278,26 279,32 280,38 281,35 282,32 283,32 284,37 285,34 286,34 287,36 288,28 289,28 290,31 291,30 292,30 293,30 294,32 295,44 296,37 297,37 298,39 299,120" />
	<!-- Humidity Min -->
	<polygon style="fill:lime;fill-opacity:0.5;stroke:green" points="67,120 66,67 67,67 68,72 69,76 70,76 71,67 72,70 73,70 74,40 75,56 76,56 77,49 78,64 79,64 80,41 81,31 82,31 83,70 84,70 85,68 86,68 87,65 88,65 89,65 90,31 91,31 92,50 93,50 94,31 95,31 96,36 97,44 98,44 99,51 100,72 101,72 102,44 103,47 104,66 105,66 106,43 107,43 108,46 109,46 110,43 111,53 112,67 113,70 114,70 115,41 116,41 117,37 118,42 119,42 120,41 121,44 122,44 123,28 124,28 125,25 126,31 127,31 128,35 129,55 130,55 131,37 132,45 133,52 134,52 135,50 136,49 137,35 138,37 139,43 140,46 141,46 142,38 143,38 144,52 145,52 146,41 147,41 148,46 149,46 150,59 151,59 152,75 153,75 154,61 155,71 156,71 157,61 158,61 159,41 160,63 161,63 162,53 163,53 164,43 165,52 166,55 167,55 168,44 169,44 170,57 171,57 172,55 173,55 174,62 175,62 176,60 177,54 178,60 179,93 180,93 181,79 182,59 183,37 184,39 185,80 186,80 187,69 188,67 189,66 190,48 191,63 192,63 193,91 194,91 195,79 196,48 197,59 198,64 199,64 200,40 201,43 202,46 203,75 204,75 205,72 206,72 207,66 208,57 209,57 210,65 211,65 212,57 213,57 214,45 215,45 216,57 217,57 218,60 219,74 220,74 221,73 222,70 223,60 224,55 225,49 226,78 227,78 228,67 229,67 230,51 231,47 232,50 233,71 234,71 235,56 236,49 237,82 238,106 239,106 240,121 241,121 242,96 243,78 244,89 245,89 246,86 247,86 248,86 249,91 250,91 251,83 252,91 253,91 254,89 255,96 256,96 257,88 258,88 259,83 260,88 261,89 262,93 263,107 264,107 265,94 266,97 267,97 268,92 269,91 270,91 271,89 272,95 273,95 274,98 275,98 276,89 277,93 278,93 279,92 280,102 281,102 282,99 283,106 284,106 285,96 286,93 287,91 288,84 289,93 290,93 291,95 292,95 293,95 294,92 295,105 296,105 297,96 298,94 299,120" />
	<line x1="64" y1="14" x2="472" y2="14"/>
	<text fill="blue" text-anchor="end" x="64" y="19">99.5</text>
	<text fill="green" x="472" y="18">100.0</text>
	<line x1="64" y1="121" x2="472" y2="121"/>
	<text fill="blue" text-anchor="end" x="64" y="126">27.3</text>
	<text fill="green" x="472" y="125">15.4</text>
	<line x1="66" y1="14" x2="66" y2="121"/>
	<line x1="470" y1="14" x2="470" y2="121"/>
	<line x1="64" y1="40" x2="472" y2="40" stroke-dasharray="1,1" />
	<text fill="blue" text-anchor="end" x="64" y="44">81.5</text>
	<text fill="green" x="472" y="44">78.9</text>
	<line x1="64" y1="66" x2="472" y2="66" stroke-dasharray="1,1" />
	<text fill="blue" text-anchor="end" x="64" y="70">63.4</text>
	<text fill="green" x="472" y="70">57.7</text>
	<line x1="64" y1="92" x2="472" y2="92" stroke-dasharray="1,1" />
	<text fill="blue" text-anchor="end" x="64" y="96">45.4</text>
	<text fill="green" x="472" y="96">36.6</text>
	<!-- FreezingLine = 114 -->
	<line style="fill:red;stroke:red;stroke-dasharray:1;" x1="64" y1="114" x2="472" y2="114" />
	<line stroke-dasharray="1,1" x1="67" y1="14" x2="67" y2="123" />
	<text text-anchor="middle" x="81" y="133">Feb</text>
	<line stroke-dasharray="1,1" x1="95" y1="14" x2="95" y2="123" />
	<text text-anchor="middle" x="112" y="133">Jan</text>
	<line style="stroke:red" x1="126" y1="14" x2="126" y2="123" />
	<text text-anchor="middle" x="143" y="133">Dec</text>
	<line stroke-dasharray="1,1" x1="157" y1="14" x2="157" y2="123" />
	<text text-anchor="middle" x="173" y="133">Nov</text>
	<line stroke-dasharray="1,1" x1="187" y1="14" x2="187" y2="123" />
	<text text-anchor="middle" x="204" y="133">Oct</text>
	<line stroke-dasharray="1,1" x1="218" y1="14" x2="218" y2="123" />
	<text text-anchor="middle" x="234" y="133">Sep</text>
	<line stroke-dasharray="1,1" x1="248" y1="14" x2="248" y2="123" />
	<text text-anchor="middle" x="265" y="133">Aug</text>
	<line stroke-dasharray="1,1" x1="279" y1="14" x2="279" y2="123" />
	<text text-anchor="middle" x="296" y="133">Jul</text>
	<polygon stroke="red" fill="red" points="63,121 69,118 69,124" />
	<!-- Temperature MinMax -->
	<polygon style="fill:blue;fill-opacity:0.5;stroke:blue" points="67,73 68,73 69,69 70,69 71,77 72,71 73,71 74,78 75,79 76,82 77,84 78,77 79,77 80,83 81,93 82,105 83,104 84,104 85,93 86,85 87,85 88,78 89,78 90,83 91,83 92,78 93,78 94,85 95,85 96,86 97,87 98,88 99,83 100,83 101,89 102,92 103,88 104,88 105,88 106,82 107,82 108,81 109,73 110,73 111,68 112,68 113,74 114,74 115,78 116,86 117,86 118,89 119,79 120,79 121,80 122,86 123,86 124,88 125,83 126,83 127,83 128,90 129,82 130,82 131,87 132,88 133,84 134,84 135,80 136,80 137,80 138,80 139,84 140,78 141,78 142,85 143,85 144,85 145,93 146,88 147,88 148,82 149,82 150,77 151,77 152,72 153,69 154,69 155,68 156,68 157,75 158,75 159,88 160,73 161,73 162,78 163,78 164,84 165,85 166,67 167,67 168,83 169,83 170,67 171,67 172,74 173,74 174,77 175,77 176,86 177,76 178,76 179,82 180,82 181,84 182,73 183,62 184,62 185,62 186,62 187,65 188,61 189,61 190,71 191,70 192,70 193,83 194,81 195,81 196,80 197,71 198,60 199,60 200,71 201,71 202,64 203,53 204,53 205,54 206,60 207,65 208,64 209,59 210,53 211,53 212,53 213,53 214,61 215,61 216,50 217,50 218,48 219,44 220,44 221,47 222,47 223,58 224,62 225,62 226,48 227,48 228,47 229,47 230,51 231,51 232,51 233,39 234,39 235,54 236,61 237,47 238,24 239,24 240,27 241,27 242,40 243,40 244,28 245,28 246,30 247,30 248,34 249,44 250,39 251,37 252,34 253,34 254,36 255,34 256,34 257,35 258,35 259,32 260,29 261,29 262,26 263,14 264,14 265,34 266,35 267,37 268,45 269,31 270,31 271,37 272,40 273,40 274,26 275,26 276,30 277,30 278,30 279,34 280,31 281,26 282,26 283,14 284,14 285,35 286,38 287,40 288,44 289,28 290,28 291,29 292,29 293,33 294,29 295,28 296,28 297,36 298,44 298,83 297,83 296,83 295,76 294,74 293,80 292,80 291,75 290,72 289,70 288,73 287,74 286,82 285,82 284,77 283,73 282,76 281,76 280,75 279,72 278,74 277,74 276,73 275,73 274,77 273,77 272,77 271,82 270,82 269,77 268,77 267,84 266,84 265,81 264,73 263,71 262,71 261,73 260,73 259,68 258,74 257,81 256,81 255,79 254,79 253,80 252,80 251,79 250,82 249,82 248,80 247,77 246,79 245,79 244,74 243,79 242,79 241,82 240,82 239,78 238,76 237,82 236,84 235,84 234,77 233,75 232,75 231,73 230,73 229,76 228,81 227,81 226,74 225,74 224,78 223,80 222,83 221,84 220,84 219,81 218,81 217,82 216,82 215,80 214,81 213,84 212,84 211,81 210,78 209,81 208,84 207,84 206,87 205,88 204,94 203,94 202,82 201,82 200,85 199,90 198,96 197,102 196,102 195,101 194,107 193,108 192,108 191,92 190,90 189,89 188,100 187,100 186,99 185,99 184,87 183,92 182,104 181,106 180,106 179,113 178,113 177,107 176,107 175,100 174,102 173,102 172,93 171,92 170,93 169,94 168,94 167,99 166,102 165,102 164,97 163,97 162,97 161,93 160,104 159,105 158,105 157,105 156,106 155,106 154,106 153,108 152,108 151,93 150,93 149,102 148,104 147,105 146,113 145,113 144,101 143,97 142,97 141,93 140,93 139,93 138,93 137,91 136,111 135,115 134,118 133,118 132,110 131,109 130,112 129,112 128,103 127,100 126,93 125,100 124,105 123,105 122,97 121,100 120,102 119,103 118,108 117,108 116,98 115,94 114,99 113,101 112,101 111,100 110,100 109,105 108,105 107,107 106,107 105,110 104,116 103,116 102,105 101,107 100,107 99,105 98,100 97,100 96,99 95,96 94,100 93,101 92,101 91,96 90,97 89,102 88,108 87,113 86,113 85,116 84,120 83,121 82,121 81,114 80,109 79,104 78,105 77,105 76,103 75,103 74,100 73,105 72,107 71,107 70,103 69,107 68,107 67,99 " />
	<!-- Battery -->
	<polyline style="fill:none;stroke:OrangeRed" points="67,14 68,14 69,14 70,14 71,14 72,14 73,14 74,14 75,14 76,14 77,14 78,14 79,14 80,15 81,15 82,16 83,16 84,15 85,14 86,14 87,14 88,14 89,14 90,14 91,14 92,14 93,14 94,14 95,14 96,14 97,14 98,14 99,14 100,14 101,14 102,14 103,14 104,14 105,14 106,14 107,14 108,14 109,14 110,14 111,14 112,14 113,14 114,14 115,14 116,14 117,14 118,14 119,14 120,14 121,14 122,14 123,14 124,14 125,14 126,14 127,14 128,14 129,14 130,14 131,14 132,14 133,15 134,15 135,14 136,14 137,14 138,14 139,14 140,14 141,14 142,14 143,14 144,14 145,15 146,14 147,14 148,14 149,14 150,14 151,14 152,14 153,14 154,14 155,14 156,14 157,14 158,14 159,14 160,14 161,14 162,14 163,14 164,14 165,14 166,14 167,14 168,14 169,14 170,14 171,14 172,14 173,14 174,14 175,14 176,14 177,15 178,14 179,14 180,14 181,14 182,14 183,14 184,14 185,14 186,14 187,14 188,14 189,14 190,14 191,14 192,14 193,15 194,14 195,14 196,14 197,14 198,14 199,14 200,14 201,14 202,14 203,14 204,14 205,14 206,14 207,14 208,14 209,14 210,14 211,14 212,14 213,14 214,14 215,14 216,14 217,14 218,14 219,14 220,14 221,14 222,14 223,14 224,14 225,14 226,14 227,14 228,14 229,14 230,14 231,14 232,14 233,14 234,14 235,14 236,14 237,14 238,14 239,14 240,14 241,14 242,14 243,14 244,14 245,14 246,14 247,14 248,14 249,14 250,14 251,14 252,14 253,14 254,14 255,14 256,14 257,14 258,14 259,14 260,14 261,14 262,14 263,14 264,14 265,14 266,14 267,14 268,14 269,14 270,14 271,14 272,14 273,14 274,14 275,14 276,14 277,14 278,14 279,14 280,14 281,14 282,14 283,14 284,14 285,14 286,14 287,14 288,14 289,14 290,14 291,14 292,14 293,14 294,14 295,14 296,14 297,14 298,14 " />
</svg>
