<?xml version="1.0" encoding="utf-8" standalone="no"?>
<svg xmlns="http://www.w3.org/2000/svg" xmlns:xlink="http://www.w3.org/1999/xlink" width="500" height="135">
	<!-- Created by: GoveeBTTempLogger Version 5.20260529.0 Built on: May 29 2026 at 13:57:27 -->
	<clipPath id="GraphRegion"><polygon points="54,14 470,14 470,121 54,121" /></clipPath>
	<style>
		text { font-family: sans-serif; font-size: 12px; fill: dimgrey; }
		line { stroke: dimgrey; }
		polygon { fill-opacity: 0.5; }
	</style>
	<rect style="fill-opacity:0;stroke:grey;stroke-width:2" width="500" height="135" />
	<text x="54" y="12">Outside H5074 (E3:5E:CC:21:5C:0F)</text>
	<text style="text-anchor:end" x="470" y="12">2026-06-26 09:49:44</text>
	<text style="fill:blue;text-anchor:middle" x="12" y="50%" transform="rotate(270 12,67)">Temperature (61.3°F)</text>
	<text style="fill:green;text-anchor:middle" x="24" y="50%" transform="rotate(270 24,67)">Humidity (100.0%)</text>
	<!-- Humidity -->
	<polygon style="fill:lime;stroke:green;clip-path:url(#GraphRegion)" points="55,120 54,14 55,14 56,14 57,14 58,14 59,14 60,14 61,14 62,14 63,14 64,14 65,14 66,14 67,14 68,14 69,14 70,14 71,14 72,14 73,14 74,14 75,14 76,14 77,14 78,14 79,14 80,14 81,14 82,14 83,14 84,14 85,14 86,14 87,14 88,14 89,14 90,14 91,14 92,14 93,14 94,14 95,14 96,14 97,14 98,14 99,14 100,14 101,14 102,14 103,14 104,14 105,14 106,14 107,14 108,14 109,14 110,14 111,14 112,14 113,14 114,14 115,14 116,14 117,14 118,14 119,14 120,14 121,14 122,14 123,14 124,14 125,14 126,14 127,14 128,14 129,14 130,14 131,14 132,14 133,14 134,14 135,14 136,14 137,14 138,14 139,14 140,14 141,14 142,14 143,14 144,14 145,14 146,14 147,14 148,14 149,14 150,14 151,14 152,14 153,14 154,14 155,14 156,14 157,14 158,14 159,14 160,14 161,14 162,14 163,14 164,14 165,14 166,14 167,14 168,14 169,14 170,14 171,14 172,14 173,14 174,14 175,14 176,14 177,14 178,14 179,14 180,14 181,14 182,14 183,14 184,14 185,14 186,14 187,14 188,14 189,14 190,14 191,14 192,14 193,14 194,14 195,14 196,14 197,14 198,14 199,14 200,14 201,14 202,14 203,14 204,14 205,14 206,14 207,14 208,14 209,14 210,14 211,14 212,14 213,14 214,14 215,14 216,14 217,14 218,14 219,14 220,14 221,14 222,14 223,14 224,14 225,14 226,14 227,14 228,14 229,14 230,14 231,14 232,14 233,14 234,14 235,14 236,14 237,14 238,14 239,14 240,14 241,14 242,14 243,14 244,14 245,14 246,14 247,14 248,14 249,14 250,14 251,14 252,14 253,14 254,14 255,14 256,14 257,14 258,14 259,14 260,14 261,14 262,14 263,14 264,14 265,14 266,14 267,18 268,26 269,30 270,31 271,30 272,26 273,19 274,17 275,14 276,14 277,14 278,14 279,14 280,14 281,14 282,14 283,14 284,16 285,17 286,15 287,14 288,14 289,14 290,14 291,14 292,14 293,14 294,14 295,14 296,14 297,14 298,14 299,14 300,14 301,14 302,14 303,14 304,14 305,14 306,14 307,14 308,14 309,14 310,14 311,14 312,14 313,14 314,14 315,14 316,14 317,14 318,14 319,14 320,14 321,14 322,14 323,14 324,14 325,14 326,14 327,14 328,14 329,14 330,14 331,14 332,14 333,14 334,14 335,14 336,14 337,14 338,14 339,14 340,14 341,14 342,14 343,14 344,14 345,14 346,14 347,14 348,14 349,14 350,14 351,14 352,14 353,14 354,14 355,14 356,14 357,14 358,14 359,14 360,14 361,14 362,14 363,14 364,14 365,14 366,14 367,14 368,14 369,14 370,14 371,14 372,14 373,14 374,14 375,14 376,14 377,14 378,14 379,14 380,14 381,14 382,14 383,14 384,14 385,14 386,14 387,14 388,14 389,14 390,14 391,14 392,14 393,14 394,14 395,14 396,14 397,14 398,14 399,14 400,14 401,14 402,14 403,14 404,14 405,14 406,14 407,14 408,14 409,14 410,14 411,14 412,14 413,14 414,14 415,14 416,14 417,14 418,14 419,14 420,14 421,14 422,14 423,14 424,14 425,14 426,14 427,14 428,14 429,14 430,14 431,14 432,14 433,14 434,14 435,14 436,14 437,14 438,14 439,14 440,14 441,14 442,14 443,14 444,14 445,14 446,14 447,14 448,14 449,18 450,25 451,33 452,39 453,39 454,35 455,34 456,37 457,40 458,41 459,43 460,43 461,45 462,48 463,50 464,53 465,56 466,58 467,54 468,53 469,53 469,120" />
	<line x1="52" y1="14" x2="472" y2="14"/>
	<text style="fill:blue;text-anchor:end;dominant-baseline:middle" x="52" y="14">67.4</text>
	<text style="fill:green;dominant-baseline:middle" x="472" y="14">100.0</text>
	<line x1="52" y1="121" x2="472" y2="121"/>
	<text style="fill:blue;text-anchor:end;dominant-baseline:middle" x="52" y="121">53.7</text>
	<text style="fill:green;dominant-baseline:middle" x="472" y="121">77.9</text>
	<line x1="54" y1="14" x2="54" y2="121"/>
	<line x1="470" y1="14" x2="470" y2="121"/>
	<line style="stroke-dasharray:1" x1="52" y1="40" x2="472" y2="40" />
	<text style="fill:blue;text-anchor:end;dominant-baseline:middle" x="52" y="40">64.0</text>
	<text style="fill:green;dominant-baseline:middle" x="472" y="40">94.5</text>
	<line style="stroke-dasharray:1" x1="52" y1="66" x2="472" y2="66" />
	<text style="fill:blue;text-anchor:end;dominant-baseline:middle" x="52" y="66">60.5</text>
	<text style="fill:green;dominant-baseline:middle" x="472" y="66">88.9</text>
	<line style="stroke-dasharray:1" x1="52" y1="92" x2="472" y2="92" />
	<text style="fill:blue;text-anchor:end;dominant-baseline:middle" x="52" y="92">57.1</text>
	<text style="fill:green;dominant-baseline:middle" x="472" y="92">83.4</text>
	<line style="stroke-dasharray:1" x1="63" y1="14" x2="63" y2="123" />
	<line style="stroke-dasharray:1" x1="75" y1="14" x2="75" y2="123" />
	<text style="text-anchor:middle" x="75" y="133">8</text>
	<line style="stroke-dasharray:1" x1="87" y1="14" x2="87" y2="123" />
	<line style="stroke-dasharray:1" x1="99" y1="14" x2="99" y2="123" />
	<text style="text-anchor:middle" x="99" y="133">6</text>
	<line style="stroke-dasharray:1" x1="111" y1="14" x2="111" y2="123" />
	<line style="stroke-dasharray:1" x1="123" y1="14" x2="123" y2="123" />
	<text style="text-anchor:middle" x="123" y="133">4</text>
	<line style="stroke-dasharray:1" x1="135" y1="14" x2="135" y2="123" />
	<line style="stroke-dasharray:1" x1="147" y1="14" x2="147" y2="123" />
	<text style="text-anchor:middle" x="147" y="133">2</text>
	<line style="stroke-dasharray:1" x1="159" y1="14" x2="159" y2="123" />
	<line style="stroke:red" x1="171" y1="14" x2="171" y2="123" />
	<text style="text-anchor:middle" x="171" y="133">0</text>
	<line style="stroke-dasharray:1" x1="183" y1="14" x2="183" y2="123" />
	<line style="stroke-dasharray:1" x1="195" y1="14" x2="195" y2="123" />
	<text style="text-anchor:middle" x="195" y="133">22</text>
	<line style="stroke-dasharray:1" x1="207" y1="14" x2="207" y2="123" />
	<line style="stroke-dasharray:1" x1="219" y1="14" x2="219" y2="123" />
	<text style="text-anchor:middle" x="219" y="133">20</text>
	<line style="stroke-dasharray:1" x1="231" y1="14" x2="231" y2="123" />
	<line style="stroke-dasharray:1" x1="243" y1="14" x2="243" y2="123" />
	<text style="text-anchor:middle" x="243" y="133">18</text>
	<line style="stroke-dasharray:1" x1="255" y1="14" x2="255" y2="123" />
	<line style="stroke-dasharray:1" x1="267" y1="14" x2="267" y2="123" />
	<text style="text-anchor:middle" x="267" y="133">16</text>
	<line style="stroke-dasharray:1" x1="279" y1="14" x2="279" y2="123" />
	<line style="stroke-dasharray:1" x1="291" y1="14" x2="291" y2="123" />
	<text style="text-anchor:middle" x="291" y="133">14</text>
	<line style="stroke-dasharray:1" x1="303" y1="14" x2="303" y2="123" />
	<line style="stroke-dasharray:1" x1="315" y1="14" x2="315" y2="123" />
	<text style="text-anchor:middle" x="315" y="133">12</text>
	<line style="stroke-dasharray:1" x1="327" y1="14" x2="327" y2="123" />
	<line style="stroke-dasharray:1" x1="339" y1="14" x2="339" y2="123" />
	<text style="text-anchor:middle" x="339" y="133">10</text>
	<line style="stroke-dasharray:1" x1="351" y1="14" x2="351" y2="123" />
	<line style="stroke-dasharray:1" x1="363" y1="14" x2="363" y2="123" />
	<text style="text-anchor:middle" x="363" y="133">8</text>
	<line style="stroke-dasharray:1" x1="375" y1="14" x2="375" y2="123" />
	<line style="stroke-dasharray:1" x1="387" y1="14" x2="387" y2="123" />
	<text style="text-anchor:middle" x="387" y="133">6</text>
	<line style="stroke-dasharray:1" x1="399" y1="14" x2="399" y2="123" />
	<line style="stroke-dasharray:1" x1="411" y1="14" x2="411" y2="123" />
	<text style="text-anchor:middle" x="411" y="133">4</text>
	<line style="stroke-dasharray:1" x1="423" y1="14" x2="423" y2="123" />
	<line style="stroke-dasharray:1" x1="435" y1="14" x2="435" y2="123" />
	<text style="text-anchor:middle" x="435" y="133">2</text>
	<line style="stroke-dasharray:1" x1="447" y1="14" x2="447" y2="123" />
	<line style="stroke:red" x1="459" y1="14" x2="459" y2="123" />
	<text style="text-anchor:middle" x="459" y="133">0</text>
	<polygon style="fill:red;stroke:red;fill-opacity:1;" points="51,121 57,118 57,124" />
	<!-- Temperature -->
	<polyline style="fill:none;stroke:blue;clip-path:url(#GraphRegion)" points="55,58 56,61 57,63 58,61 59,65 60,74 61,77 62,79 63,80 64,81 65,81 66,80 67,82 68,83 69,83 70,84 71,85 72,85 73,85 74,86 75,87 76,87 77,88 78,88 79,89 80,90 81,90 82,90 83,90 84,91 85,92 86,93 87,94 88,94 89,94 90,95 91,95 92,95 93,95 94,96 95,96 96,96 97,96 98,96 99,97 100,96 101,96 102,96 103,96 104,95 105,95 106,94 107,94 108,94 109,94 110,94 111,94 112,94 113,95 114,96 115,97 116,97 117,98 118,98 119,98 120,98 121,99 122,100 123,100 124,101 125,101 126,102 127,102 128,102 129,103 130,103 131,103 132,104 133,104 134,105 135,105 136,106 137,106 138,106 139,107 140,107 141,108 142,108 143,108 144,109 145,109 146,110 147,110 148,111 149,111 150,111 151,111 152,111 153,112 154,112 155,112 156,112 157,112 158,113 159,113 160,113 161,113 162,113 163,113 164,113 165,113 166,113 167,114 168,115 169,115 170,115 171,115 172,115 173,115 174,115 175,115 176,115 177,115 178,115 179,115 180,114 181,114 182,113 183,112 184,112 185,112 186,112 187,111 188,111 189,112 190,112 191,112 192,112 193,112 194,112 195,111 196,111 197,110 198,109 199,110 200,110 201,110 202,110 203,110 204,110 205,110 206,110 207,109 208,109 209,110 210,109 211,107 212,105 213,104 214,103 215,101 216,99 217,96 218,91 219,87 220,84 221,83 222,82 223,82 224,82 225,82 226,81 227,80 228,78 229,77 230,79 231,83 232,85 233,87 234,87 235,87 236,86 237,87 238,85 239,82 240,82 241,83 242,89 243,92 244,96 245,97 246,98 247,98 248,98 249,98 250,98 251,98 252,97 253,97 254,96 255,95 256,92 257,90 258,89 259,87 260,84 261,78 262,62 263,47 264,52 265,55 266,55 267,48 268,39 269,36 270,35 271,35 272,35 273,38 274,43 275,47 276,48 277,51 278,48 279,47 280,52 281,52 282,55 283,52 284,49 285,42 286,41 287,44 288,49 289,52 290,54 291,62 292,70 293,78 294,84 295,86 296,90 297,91 298,90 299,90 300,90 301,89 302,89 303,88 304,85 305,84 306,80 307,78 308,77 309,78 310,75 311,70 312,65 313,71 314,78 315,84 316,88 317,89 318,87 319,84 320,82 321,82 322,78 323,77 324,77 325,74 326,73 327,73 328,72 329,72 330,72 331,70 332,70 333,71 334,72 335,78 336,80 337,80 338,81 339,79 340,77 341,77 342,79 343,82 344,84 345,87 346,89 347,87 348,87 349,88 350,87 351,87 352,87 353,86 354,87 355,86 356,86 357,88 358,90 359,92 360,95 361,98 362,103 363,106 364,109 365,110 366,110 367,111 368,111 369,109 370,109 371,111 372,112 373,112 374,112 375,112 376,112 377,112 378,112 379,112 380,113 381,113 382,114 383,114 384,114 385,115 386,116 387,116 388,116 389,118 390,118 391,117 392,116 393,115 394,114 395,114 396,113 397,113 398,113 399,112 400,111 401,110 402,109 403,110 404,110 405,110 406,110 407,111 408,111 409,110 410,110 411,109 412,109 413,111 414,112 415,112 416,112 417,112 418,112 419,114 420,117 421,119 422,120 423,121 424,120 425,119 426,119 427,118 428,118 429,117 430,116 431,113 432,112 433,112 434,112 435,112 436,112 437,111 438,110 439,109 440,109 441,108 442,108 443,107 444,105 445,104 446,104 447,102 448,98 449,94 450,88 451,80 452,73 453,72 454,76 455,76 456,74 457,70 458,68 459,67 460,66 461,64 462,63 463,61 464,58 465,57 466,56 467,60 468,62 469,62 " />
</svg>
