<?xml version="1.0" encoding="utf-8" standalone="no"?>
<svg xmlns="http://www.w3.org/2000/svg" xmlns:xlink="http://www.w3.org/1999/xlink" width="500" height="135">
	<!-- Created by: GoveeBTTempLogger Version 5.20260529.0 Built on: May 29 2026 at 13:57:27 -->
	<clipPath id="GraphRegion"><polygon points="66,14 470,14 470,121 66,121" /></clipPath>
	<style>
		text { font-family: sans-serif; font-size: 12px; fill: dimgrey; }
		line { stroke: dimgrey; }
		polygon { fill-opacity: 0.5; }
	</style>
	<rect style="fill-opacity:0;stroke:grey;stroke-width:2" width="500" height="135" />
	<text x="66" y="12">Outside H5074 (E3:5E:CC:21:5C:0F)</text>
	<text style="text-anchor:end" x="470" y="12">2026-06-26 00:00:00</text>
	<text style="fill:blue;text-anchor:middle" x="12" y="50%" transform="rotate(270 12,67)">Temperature (57.1°F)</text>
	<text style="fill:green;text-anchor:middle" x="24" y="50%" transform="rotate(270 24,67)">Humidity (99.8%)</text>
	<text style="fill:OrangeRed" text-anchor="middle" x="36" y="50%" transform="rotate(270 36,67)">Battery (100%)</text>
	<!-- Humidity Max -->
	<polygon style="fill:lime;stroke:green;clip-path:url(#GraphRegion)" points="67,120 66,14 67,14 68,14 69,14 70,14 71,14 72,14 73,14 74,14 75,14 76,14 77,14 78,14 79,14 80,14 81,14 82,14 83,14 84,14 85,14 86,14 87,14 88,14 89,14 90,14 91,14 92,14 93,14 94,14 95,14 96,14 97,14 98,14 99,14 100,14 101,14 102,14 103,14 104,14 105,14 106,14 107,14 108,14 109,14 110,14 111,14 112,14 113,14 114,14 115,14 116,14 117,14 118,14 119,14 120,14 121,14 122,14 123,14 124,14 125,14 126,14 127,14 128,14 129,14 130,14 131,14 132,14 133,14 134,14 135,14 136,14 137,14 138,14 139,14 140,14 141,14 142,14 143,14 144,14 145,14 146,14 147,14 148,14 149,14 150,14 151,14 152,14 153,14 154,14 155,14 156,14 157,14 158,14 159,14 160,14 161,14 162,14 163,14 164,14 165,14 166,14 167,14 168,14 169,14 170,14 171,14 172,14 173,14 174,14 175,14 176,14 177,14 178,14 179,14 180,14 181,14 182,14 183,14 184,14 185,14 186,14 187,14 188,14 189,14 190,14 191,14 192,14 193,14 194,14 195,14 196,14 197,14 198,14 199,14 200,14 201,14 202,14 203,14 204,14 205,14 206,14 207,14 208,14 209,14 210,14 211,14 212,14 213,14 214,14 215,14 216,14 217,14 218,14 219,14 220,14 221,14 222,14 223,14 224,14 225,14 226,14 227,14 228,14 229,14 230,14 231,14 232,14 233,14 234,14 235,14 236,14 237,14 238,14 239,14 240,14 241,14 242,14 243,14 244,14 245,14 246,14 247,14 248,14 249,14 250,14 251,14 252,14 253,14 254,14 255,14 256,14 257,14 258,14 259,14 260,14 261,14 262,14 263,14 264,14 265,14 266,14 267,14 268,14 269,14 270,14 271,14 272,14 273,14 274,14 275,14 276,14 277,14 278,14 279,14 280,14 281,14 282,14 283,14 284,14 285,14 286,14 287,14 288,14 289,14 290,14 291,14 292,14 293,14 294,14 295,14 296,14 297,14 298,14 299,14 300,14 301,14 302,14 303,14 304,14 305,14 306,14 307,14 308,14 309,14 310,14 311,14 312,14 313,14 314,14 315,14 316,14 317,14 318,14 319,14 320,14 321,14 322,14 323,14 324,14 325,14 326,14 327,14 328,14 329,14 330,14 331,14 332,14 333,14 334,14 335,14 336,14 337,14 338,14 339,14 340,14 341,14 342,14 343,14 344,14 345,14 346,14 347,14 348,14 349,14 350,14 351,14 352,14 353,14 354,14 355,14 356,14 357,14 358,14 359,14 360,14 361,14 362,14 363,14 364,14 365,14 366,14 367,14 368,14 369,14 370,14 371,14 372,14 373,14 374,14 375,14 376,14 377,14 378,14 379,14 380,14 381,14 382,14 383,14 384,14 385,14 386,14 387,14 388,14 389,14 390,14 391,14 392,14 393,14 394,14 395,14 396,14 397,14 398,14 399,14 400,14 401,14 402,14 403,14 404,14 405,14 406,14 407,14 408,14 409,14 410,14 411,14 412,14 413,14 414,14 415,14 416,14 417,14 418,14 419,14 420,14 421,14 422,14 423,14 424,14 425,14 426,14 427,14 428,14 429,14 430,14 431,14 432,14 433,14 434,14 435,14 436,14 437,14 438,14 439,14 440,14 441,14 442,14 443,14 444,14 445,14 446,14 447,14 448,14 449,14 450,14 451,14 452,14 453,14 454,14 455,14 456,14 457,14 458,14 459,14 460,14 461,14 462,14 463,14 464,14 465,14 466,14 467,14 468,14 469,14 469,120" />
	<!-- Humidity Min -->
	<polygon style="fill:lime;stroke:green;clip-path:url(#GraphRegion)" points="67,120 66,20 67,41 68,57 69,52 70,41 71,26 72,37 73,39 74,29 75,37 76,60 77,33 78,36 79,38 80,45 81,40 82,35 83,29 84,41 85,38 86,31 87,17 88,38 89,57 90,44 91,45 92,39 93,17 94,51 95,35 96,23 97,60 98,49 99,26 100,39 101,44 102,33 103,31 104,46 105,31 106,31 107,20 108,37 109,23 110,44 111,34 112,31 113,33 114,38 115,38 116,20 117,24 118,51 119,49 120,33 121,29 122,34 123,27 124,27 125,20 126,67 127,59 128,51 129,28 130,14 131,30 132,43 133,26 134,52 135,41 136,53 137,15 138,14 139,18 140,19 141,14 142,29 143,33 144,39 145,52 146,51 147,30 148,26 149,42 150,37 151,16 152,57 153,34 154,26 155,29 156,38 157,54 158,21 159,14 160,32 161,33 162,42 163,22 164,14 165,14 166,14 167,14 168,37 169,25 170,14 171,19 172,14 173,37 174,27 175,18 176,14 177,14 178,29 179,14 180,14 181,33 182,20 183,20 184,25 185,26 186,31 187,22 188,14 189,18 190,20 191,25 192,31 193,22 194,33 195,16 196,26 197,24 198,14 199,21 200,18 201,19 202,17 203,14 204,14 205,30 206,14 207,21 208,14 209,14 210,14 211,14 212,14 213,14 214,14 215,25 216,25 217,28 218,32 219,30 220,19 221,27 222,18 223,16 224,20 225,18 226,21 227,14 228,14 229,14 230,14 231,14 232,20 233,18 234,14 235,14 236,14 237,14 238,16 239,14 240,14 241,14 242,14 243,14 244,14 245,18 246,23 247,14 248,14 249,14 250,14 251,24 252,14 253,14 254,14 255,14 256,25 257,14 258,14 259,14 260,14 261,14 262,14 263,14 264,16 265,14 266,14 267,19 268,14 269,14 270,15 271,14 272,18 273,25 274,16 275,21 276,14 277,14 278,14 279,14 280,14 281,14 282,15 283,19 284,15 285,16 286,14 287,14 288,14 289,14 290,14 291,17 292,18 293,18 294,35 295,20 296,22 297,14 298,14 299,14 300,14 301,27 302,14 303,19 304,14 305,24 306,27 307,29 308,14 309,19 310,14 311,17 312,21 313,22 314,21 315,23 316,16 317,25 318,23 319,35 320,32 321,36 322,28 323,15 324,22 325,17 326,36 327,40 328,29 329,28 330,18 331,28 332,40 333,27 334,38 335,14 336,29 337,37 338,34 339,24 340,28 341,30 342,32 343,30 344,37 345,30 346,24 347,41 348,43 349,28 350,19 351,35 352,35 353,21 354,25 355,23 356,30 357,26 358,29 359,30 360,19 361,27 362,27 363,17 364,25 365,14 366,22 367,27 368,28 369,42 370,46 371,58 372,46 373,41 374,30 375,47 376,41 377,48 378,33 379,30 380,14 381,43 382,40 383,54 384,43 385,40 386,40 387,42 388,41 389,26 390,43 391,41 392,34 393,27 394,41 395,36 396,51 397,48 398,42 399,48 400,43 401,37 402,38 403,39 404,45 405,57 406,34 407,36 408,34 409,57 410,64 411,45 412,28 413,39 414,29 415,34 416,30 417,28 418,34 419,47 420,43 421,37 422,43 423,41 424,40 425,39 426,44 427,35 428,47 429,27 430,31 431,44 432,37 433,41 434,42 435,23 436,45 437,41 438,46 439,54 440,42 441,47 442,49 443,44 444,42 445,38 446,56 447,48 448,53 449,41 450,44 451,38 452,40 453,61 454,44 455,44 456,31 457,54 458,31 459,31 460,31 461,31 462,31 463,31 464,31 465,31 466,31 467,36 468,35 469,21 469,120" />
	<line x1="64" y1="14" x2="472" y2="14"/>
	<text style="fill:blue;text-anchor:end;dominant-baseline:middle" x="64" y="14">106.9</text>
	<text style="fill:green;dominant-baseline:middle" x="472" y="14">100.0</text>
	<line x1="64" y1="121" x2="472" y2="121"/>
	<text style="fill:blue;text-anchor:end;dominant-baseline:middle" x="64" y="121">30.4</text>
	<text style="fill:green;dominant-baseline:middle" x="472" y="121">0.0</text>
	<line x1="66" y1="14" x2="66" y2="121"/>
	<line x1="470" y1="14" x2="470" y2="121"/>
	<line style="stroke-dasharray:1" x1="64" y1="40" x2="472" y2="40" />
	<text style="fill:blue;text-anchor:end;dominant-baseline:middle" x="64" y="40">87.8</text>
	<text style="fill:green;dominant-baseline:middle" x="472" y="40">75.0</text>
	<line style="stroke-dasharray:1" x1="64" y1="66" x2="472" y2="66" />
	<text style="fill:blue;text-anchor:end;dominant-baseline:middle" x="64" y="66">68.7</text>
	<text style="fill:green;dominant-baseline:middle" x="472" y="66">50.0</text>
	<line style="stroke-dasharray:1" x1="64" y1="92" x2="472" y2="92" />
	<text style="fill:blue;text-anchor:end;dominant-baseline:middle" x="64" y="92">49.5</text>
	<text style="fill:green;dominant-baseline:middle" x="472" y="92">25.0</text>
	<!-- FreezingLine = 118 -->
	<line style="fill:red;stroke:red;stroke-dasharray:1" x1="64" y1="118" x2="472" y2="118" />
	<text style="text-anchor:middle" x="77" y="133">Jun</text>
	<line style="stroke-dasharray:1" x1="91" y1="14" x2="91" y2="123" />
	<text style="text-anchor:middle" x="108" y="133">May</text>
	<line style="stroke-dasharray:1" x1="122" y1="14" x2="122" y2="123" />
	<text style="text-anchor:middle" x="138" y="133">Apr</text>
	<line style="stroke-dasharray:1" x1="152" y1="14" x2="152" y2="123" />
	<text style="text-anchor:middle" x="169" y="133">Mar</text>
	<line style="stroke-dasharray:1" x1="183" y1="14" x2="183" y2="123" />
	<text style="text-anchor:middle" x="197" y="133">Feb</text>
	<line style="stroke-dasharray:1" x1="211" y1="14" x2="211" y2="123" />
	<text style="text-anchor:middle" x="228" y="133">Jan</text>
	<line style="stroke:red" x1="242" y1="14" x2="242" y2="123" />
	<text style="text-anchor:middle" x="259" y="133">Dec</text>
	<line style="stroke-dasharray:1" x1="273" y1="14" x2="273" y2="123" />
	<text style="text-anchor:middle" x="289" y="133">Nov</text>
	<line style="stroke-dasharray:1" x1="303" y1="14" x2="303" y2="123" />
	<text style="text-anchor:middle" x="320" y="133">Oct</text>
	<line style="stroke-dasharray:1" x1="334" y1="14" x2="334" y2="123" />
	<text style="text-anchor:middle" x="350" y="133">Sep</text>
	<line style="stroke-dasharray:1" x1="364" y1="14" x2="364" y2="123" />
	<text style="text-anchor:middle" x="381" y="133">Aug</text>
	<line style="stroke-dasharray:1" x1="395" y1="14" x2="395" y2="123" />
	<text style="text-anchor:middle" x="412" y="133">Jul</text>
	<line style="stroke-dasharray:1" x1="426" y1="14" x2="426" y2="123" />
	<text style="text-anchor:middle" x="442" y="133">Jun</text>
	<line style="stroke-dasharray:1" x1="456" y1="14" x2="456" y2="123" />
	<polygon style="fill:red;stroke:red;fill-opacity:1;" points="63,121 69,118 69,124" />
	<!-- Temperature MinMax -->
	<polygon style="fill:blue;stroke:blue;clip-path:url(#GraphRegion)" points="67,52 68,41 69,43 70,49 71,66 72,51 73,53 74,63 75,63 76,32 77,51 78,56 79,57 80,53 81,51 82,65 83,66 84,63 85,67 86,66 87,76 88,61 89,38 90,62 91,61 92,59 93,76 94,35 95,56 96,71 97,74 98,68 99,61 100,52 101,55 102,61 103,60 104,48 105,77 106,72 107,82 108,65 109,70 110,43 111,67 112,58 113,60 114,67 115,58 116,75 117,65 118,37 119,55 120,64 121,67 122,61 123,73 124,78 125,79 126,42 127,61 128,73 129,72 130,86 131,65 132,54 133,70 134,52 135,67 136,70 137,93 138,94 139,74 140,69 141,83 142,67 143,73 144,73 145,62 146,41 147,71 148,76 149,68 150,70 151,91 152,64 153,88 154,87 155,73 156,80 157,76 158,86 159,81 160,86 161,76 162,79 163,74 164,85 165,82 166,83 167,82 168,76 169,83 170,108 171,91 172,87 173,89 174,89 175,91 176,82 177,90 178,75 179,90 180,83 181,71 182,85 183,86 184,81 185,79 186,74 187,90 188,90 189,86 190,101 191,101 192,99 193,90 194,88 195,97 196,90 197,80 198,94 199,77 200,87 201,86 202,85 203,94 204,90 205,73 206,83 207,60 208,82 209,89 210,83 211,74 212,89 213,90 214,91 215,83 216,95 217,93 218,85 219,93 220,91 221,82 222,90 223,89 224,87 225,87 226,88 227,88 228,89 229,75 230,87 231,93 232,88 233,86 234,98 235,101 236,98 237,98 238,88 239,82 240,94 241,101 242,93 243,94 244,96 245,95 246,92 247,96 248,101 249,95 250,97 251,89 252,90 253,98 254,99 255,90 256,83 257,86 258,81 259,86 260,78 261,89 262,89 263,83 264,83 265,82 266,83 267,81 268,84 269,97 270,91 271,89 272,90 273,83 274,94 275,87 276,90 277,91 278,97 279,95 280,89 281,87 282,87 283,79 284,86 285,79 286,88 287,83 288,83 289,89 290,83 291,76 292,84 293,71 294,61 295,79 296,77 297,85 298,80 299,82 300,93 301,75 302,79 303,85 304,87 305,66 306,79 307,72 308,91 309,81 310,81 311,74 312,72 313,74 314,74 315,68 316,84 317,71 318,76 319,75 320,81 321,80 322,71 323,76 324,61 325,69 326,62 327,50 328,69 329,74 330,69 331,58 332,57 333,63 334,57 335,73 336,57 337,50 338,56 339,69 340,58 341,65 342,56 343,56 344,52 345,56 346,65 347,41 348,37 349,65 350,71 351,51 352,48 353,58 354,56 355,53 356,50 357,53 358,46 359,46 360,58 361,49 362,50 363,61 364,54 365,62 366,54 367,49 368,52 369,45 370,33 371,33 372,48 373,49 374,59 375,60 376,48 377,49 378,47 379,53 380,64 381,50 382,36 383,22 384,45 385,40 386,52 387,47 388,52 389,55 390,47 391,41 392,53 393,53 394,38 395,44 396,47 397,45 398,46 399,39 400,49 401,46 402,46 403,43 404,39 405,27 406,56 407,52 408,51 409,27 410,14 411,46 412,52 413,37 414,53 415,56 416,64 417,64 418,52 419,42 420,47 421,57 422,51 423,55 424,46 425,49 426,43 427,57 428,35 429,63 430,61 431,50 432,48 433,48 434,51 435,69 436,52 437,61 438,57 439,44 440,56 441,59 442,49 443,55 444,54 445,60 446,33 447,44 448,37 449,50 450,51 451,55 452,54 453,47 454,58 455,61 456,66 457,51 458,57 459,60 460,60 461,60 462,60 463,60 464,60 465,60 466,60 467,70 468,71 469,91 469,99 468,95 467,94 466,95 465,95 464,95 463,95 462,95 461,95 460,95 459,95 458,95 457,98 456,94 455,99 454,97 453,96 452,88 451,90 450,89 449,89 448,85 447,83 446,89 445,89 444,89 443,91 442,92 441,96 440,95 439,91 438,85 437,88 436,88 435,89 434,86 433,90 432,91 431,86 430,88 429,87 428,87 427,91 426,90 425,85 424,87 423,91 422,94 421,90 420,95 419,86 418,85 417,81 416,88 415,94 414,88 413,88 412,88 411,86 410,84 409,83 408,84 407,85 406,89 405,88 404,83 403,86 402,84 401,86 400,88 399,87 398,90 397,91 396,90 395,81 394,83 393,84 392,86 391,80 390,82 389,78 388,84 387,88 386,87 385,83 384,77 383,83 382,83 381,80 380,77 379,81 378,81 377,84 376,80 375,81 374,93 373,84 372,83 371,85 370,84 369,82 368,82 367,80 366,82 365,83 364,89 363,80 362,82 361,84 360,83 359,85 358,84 357,80 356,85 355,88 354,87 353,87 352,83 351,88 350,85 349,88 348,86 347,79 346,90 345,94 344,92 343,85 342,93 341,90 340,92 339,93 338,92 337,85 336,90 335,82 334,88 333,85 332,88 331,97 330,88 329,95 328,98 327,96 326,91 325,92 324,91 323,93 322,98 321,95 320,103 319,107 318,103 317,94 316,96 315,93 314,98 313,101 312,99 311,87 310,94 309,99 308,100 307,103 306,107 305,95 304,102 303,100 302,94 301,99 300,100 299,107 298,94 297,94 296,99 295,107 294,103 293,94 292,103 291,99 290,93 289,96 288,91 287,93 286,100 285,105 284,105 283,102 282,102 281,91 280,101 279,106 278,103 277,101 276,97 275,104 274,111 273,116 272,112 271,104 270,102 269,102 268,98 267,95 266,95 265,96 264,96 263,91 262,97 261,97 260,96 259,93 258,95 257,95 256,104 255,103 254,107 253,105 252,101 251,104 250,109 249,107 248,105 247,111 246,112 245,116 244,114 243,113 242,113 241,112 240,104 239,99 238,103 237,105 236,104 235,108 234,110 233,103 232,104 231,100 230,96 229,91 228,95 227,101 226,102 225,104 224,114 223,113 222,115 221,117 220,118 219,119 218,121 217,118 216,117 215,113 214,102 213,95 212,99 211,96 210,97 209,98 208,97 207,98 206,101 205,104 204,96 203,102 202,103 201,107 200,110 199,108 198,104 197,104 196,109 195,113 194,115 193,111 192,117 191,121 190,109 189,107 188,105 187,111 186,111 185,101 184,101 183,102 182,109 181,112 180,93 179,100 178,101 177,100 176,94 175,109 174,112 173,114 172,104 171,109 170,115 169,112 168,112 167,102 166,93 165,91 164,92 163,97 162,104 161,108 160,106 159,103 158,107 157,113 156,109 155,105 154,112 153,117 152,108 151,101 150,102 149,98 148,106 147,96 146,104 145,103 144,109 143,107 142,103 141,96 140,95 139,97 138,101 137,108 136,110 135,103 134,101 133,101 132,94 131,91 130,93 129,96 128,105 127,105 126,105 125,94 124,95 123,103 122,96 121,96 120,94 119,93 118,95 117,87 116,90 115,94 114,94 113,98 112,94 111,93 110,94 109,90 108,92 107,95 106,99 105,103 104,97 103,92 102,93 101,97 100,94 99,90 98,88 97,90 96,92 95,95 94,90 93,96 92,99 91,99 90,97 89,91 88,81 87,88 86,90 85,93 84,94 83,92 82,89 81,92 80,96 79,92 78,89 77,90 76,88 75,92 74,91 73,95 72,91 71,84 70,80 69,82 68,87 67,83 " />
	<!-- Battery -->
	<polyline style="fill:none;stroke:OrangeRed;clip-path:url(#GraphRegion)" points="67,14 68,14 69,14 70,14 71,14 72,14 73,14 74,14 75,14 76,14 77,14 78,14 79,14 80,14 81,14 82,14 83,14 84,14 85,14 86,14 87,14 88,14 89,14 90,14 91,14 92,14 93,14 94,14 95,14 96,14 97,14 98,14 99,14 100,14 101,14 102,14 103,14 104,14 105,14 106,14 107,14 108,14 109,14 110,14 111,14 112,14 113,14 114,14 115,14 116,14 117,14 118,14 119,14 120,14 121,14 122,14 123,14 124,14 125,14 126,14 127,14 128,14 129,14 130,14 131,14 132,14 133,14 134,14 135,14 136,14 137,14 138,14 139,14 140,14 141,14 142,14 143,14 144,14 145,14 146,14 147,14 148,14 149,14 150,14 151,14 152,14 153,14 154,14 155,14 156,14 157,14 158,14 159,14 160,14 161,14 162,14 163,14 164,14 165,14 166,14 167,14 168,14 169,14 170,14 171,14 172,14 173,14 174,14 175,14 176,14 177,14 178,14 179,14 180,14 181,14 182,14 183,14 184,14 185,14 186,14 187,14 188,14 189,14 190,14 191,14 192,14 193,14 194,14 195,14 196,14 197,14 198,14 199,14 200,14 201,14 202,14 203,14 204,14 205,14 206,14 207,14 208,14 209,14 210,14 211,14 212,14 213,14 214,14 215,14 216,14 217,14 218,14 219,14 220,14 221,14 222,14 223,14 224,14 225,14 226,14 227,14 228,14 229,14 230,14 231,14 232,14 233,14 234,14 235,14 236,14 237,14 238,14 239,14 240,14 241,14 242,14 243,14 244,14 245,14 246,14 247,14 248,14 249,14 250,14 251,14 252,14 253,14 254,14 255,14 256,14 257,14 258,14 259,14 260,14 261,14 262,14 263,14 264,14 265,14 266,14 267,14 268,14 269,14 270,14 271,14 272,14 273,14 274,14 275,14 276,14 277,14 278,14 279,14 280,14 281,14 282,14 283,14 284,14 285,14 286,14 287,14 288,14 289,14 290,14 291,14 292,14 293,14 294,14 295,14 296,14 297,14 298,14 299,14 300,14 301,14 302,14 303,14 304,14 305,14 306,14 307,14 308,14 309,14 310,14 311,14 312,14 313,14 314,14 315,14 316,14 317,14 318,14 319,14 320,14 321,14 322,14 323,14 324,14 325,14 326,14 327,14 328,14 329,14 330,14 331,14 332,14 333,14 334,14 335,14 336,14 337,14 338,14 339,14 340,14 341,14 342,14 343,14 344,14 345,14 346,14 347,14 348,14 349,14 350,14 351,14 352,14 353,14 354,14 355,14 356,14 357,14 358,14 359,14 360,14 361,14 362,14 363,14 364,14 365,14 366,14 367,14 368,14 369,14 370,14 371,14 372,14 373,14 374,14 375,14 376,14 377,14 378,14 379,14 380,14 381,14 382,14 383,14 384,14 385,14 386,14 387,14 388,14 389,14 390,14 391,14 392,14 393,14 394,14 395,14 396,14 397,14 398,14 399,14 400,14 401,14 402,14 403,14 404,14 405,14 406,14 407,14 408,14 409,14 410,14 411,14 412,14 413,14 414,14 415,14 416,14 417,14 418,14 419,14 420,14 421,14 422,14 423,14 424,14 425,14 426,14 427,14 428,14 429,14 430,14 431,14 432,14 433,14 434,14 435,14 436,14 437,14 438,14 439,14 440,14 441,14 442,14 443,14 444,14 445,14 446,14 447,14 448,14 449,14 450,14 451,14 452,14 453,14 454,14 455,14 456,14 457,14 458,39 459,39 460,39 461,39 462,39 463,39 464,39 465,39 466,39 467,46 468,41 469,34 " />
</svg>
