<?xml version="1.0" encoding="utf-8" standalone="no"?>
<svg xmlns="http://www.w3.org/2000/svg" xmlns:xlink="http://www.w3.org/1999/xlink" width="500" height="135">
	<!-- Created by: GoveeBTTempLogger Version 2.20210302-1 Built on: Mar  2 2021 at 10:42:33 -->
	<style>
		text {
			font-family: sans-serif;
			font-size: 12px;
		}
		line {
			stroke: black;
		}
	</style>
	<rect width="500" height="135" stroke="grey" stroke-width="2" fill-opacity="0" />
	<text x="54" y="12">Outside (E3:5E:CC:21:5C:0F)</text>
	<text fill="blue" text-anchor="middle" x="12" y="67" transform="rotate(270 12,67)">Temperature (48.4°F)</text>
	<text fill="green" text-anchor="middle" x="24" y="67" transform="rotate(270 24,67)">Humidity (80.1%)</text>
	<text text-anchor="end" x="470" y="12">2021-03-02 11:55:00</text>
	<polygon style="fill:lime;stroke:green" points="55,120 54,59 55,55 56,54 57,53 58,54 59,54 60,54 61,55 62,53 63,53 64,54 65,53 66,54 67,51 68,51 69,52 70,51 71,51 72,52 73,51 74,51 75,48 76,47 77,48 78,46 79,45 80,46 81,41 82,39 83,37 84,39 85,38 86,36 87,36 88,36 89,37 90,37 91,36 92,36 93,36 94,37 95,38 96,39 97,40 98,40 99,40 100,41 101,42 102,41 103,42 104,43 105,43 106,43 107,42 108,42 109,41 110,41 111,41 112,42 113,40 114,41 115,41 116,41 117,39 118,39 119,39 120,38 121,38 122,38 123,39 124,38 125,36 126,34 127,35 128,33 129,32 130,33 131,35 132,35 133,34 134,35 135,34 136,33 137,33 138,32 139,32 140,31 141,32 142,31 143,32 144,32 145,32 146,33 147,33 148,34 149,35 150,35 151,35 152,35 153,35 154,34 155,34 156,34 157,34 158,34 159,34 160,34 161,33 162,32 163,32 164,31 165,32 166,31 167,31 168,30 169,29 170,28 171,28 172,28 173,27 174,26 175,25 176,25 177,25 178,25 179,25 180,25 181,24 182,24 183,24 184,23 185,22 186,22 187,20 188,20 189,19 190,19 191,19 192,20 193,20 194,21 195,20 196,21 197,21 198,21 199,20 200,18 201,16 202,15 203,14 204,15 205,15 206,16 207,17 208,19 209,22 210,23 211,21 212,21 213,25 214,26 215,26 216,28 217,33 218,35 219,35 220,36 221,35 222,37 223,37 224,38 225,39 226,41 227,45 228,48 229,51 230,51 231,55 232,58 233,61 234,60 235,60 236,60 237,61 238,61 239,60 240,61 241,57 242,58 243,55 244,52 245,54 246,53 247,52 248,53 249,51 250,54 251,56 252,55 253,53 254,53 255,56 256,57 257,57 258,58 259,58 260,59 261,58 262,58 263,58 264,59 265,59 266,57 267,58 268,59 269,59 270,62 271,64 272,73 273,77 274,88 275,99 276,100 277,102 278,103 279,104 280,105 281,106 282,108 283,110 284,112 285,111 286,114 287,114 288,116 289,116 290,115 291,117 292,118 293,119 294,118 295,121 296,120 297,119 298,118 299,116 300,115 301,117 302,119 303,118 304,118 305,114 306,117 307,114 308,111 309,111 310,109 311,109 312,109 313,109 314,108 315,107 316,109 317,108 318,109 319,108 320,108 321,109 322,108 323,106 324,110 325,113 326,113 327,116 328,114 329,114 330,116 331,113 332,111 333,106 334,108 335,109 336,105 337,107 338,106 339,104 340,103 341,105 342,107 343,104 344,104 345,104 346,100 347,103 348,100 349,91 350,88 351,89 352,82 353,77 354,73 355,72 356,72 357,72 358,76 359,77 360,74 361,76 362,74 363,76 364,72 365,70 366,68 367,66 368,62 369,62 370,57 371,56 372,54 373,54 374,53 375,51 376,49 377,48 378,46 379,45 380,46 381,43 382,42 383,42 384,40 385,36 386,35 387,33 388,32 389,30 390,30 391,29 392,29 393,30 394,29 395,29 396,29 397,29 398,28 399,28 400,28 401,28 402,28 403,29 404,29 405,29 406,30 407,30 408,31 409,31 410,31 411,31 412,31 413,32 414,31 415,31 416,31 417,31 418,32 419,33 420,33 421,33 422,34 423,34 424,33 425,32 426,31 427,32 428,31 429,31 430,29 431,29 432,28 433,28 434,27 435,27 436,27 437,27 438,26 439,27 440,27 441,26 442,29 443,30 444,31 445,31 446,30 447,29 448,28 449,30 450,30 451,30 452,30 453,29 454,28 455,28 456,28 457,28 458,29 459,29 460,30 461,30 462,30 463,31 464,31 465,31 466,32 467,32 468,32 469,32 469,120" />
	<line x1="52" y1="14" x2="472" y2="14"/>
	<text fill="blue" text-anchor="end" x="52" y="19">59.1</text>
	<text fill="green" x="472" y="18">96.6</text>
	<line x1="52" y1="121" x2="472" y2="121"/>
	<text fill="blue" text-anchor="end" x="52" y="126">42.2</text>
	<text fill="green" x="472" y="125">57.4</text>
	<line x1="54" y1="14" x2="54" y2="121"/>
	<line x1="470" y1="14" x2="470" y2="121"/>
	<line x1="52" y1="40" x2="472" y2="40" stroke-dasharray="1,1" />
	<text fill="blue" text-anchor="end" x="52" y="44">54.9</text>
	<text fill="green" x="472" y="44">86.8</text>
	<line x1="52" y1="66" x2="472" y2="66" stroke-dasharray="1,1" />
	<text fill="blue" text-anchor="end" x="52" y="70">50.7</text>
	<text fill="green" x="472" y="70">77.0</text>
	<line x1="52" y1="92" x2="472" y2="92" stroke-dasharray="1,1" />
	<text fill="blue" text-anchor="end" x="52" y="96">46.4</text>
	<text fill="green" x="472" y="96">67.2</text>
	<!-- FreezingLine = 0 -->
	<line stroke-dasharray="1,1" x1="64" y1="14" x2="64" y2="123" />
	<line stroke-dasharray="1,1" x1="76" y1="14" x2="76" y2="123" />
	<text text-anchor="middle" x="76" y="133">10</text>
	<line stroke-dasharray="1,1" x1="88" y1="14" x2="88" y2="123" />
	<line stroke-dasharray="1,1" x1="100" y1="14" x2="100" y2="123" />
	<text text-anchor="middle" x="100" y="133">8</text>
	<line stroke-dasharray="1,1" x1="112" y1="14" x2="112" y2="123" />
	<line stroke-dasharray="1,1" x1="124" y1="14" x2="124" y2="123" />
	<text text-anchor="middle" x="124" y="133">6</text>
	<line stroke-dasharray="1,1" x1="136" y1="14" x2="136" y2="123" />
	<line stroke-dasharray="1,1" x1="148" y1="14" x2="148" y2="123" />
	<text text-anchor="middle" x="148" y="133">4</text>
	<line stroke-dasharray="1,1" x1="160" y1="14" x2="160" y2="123" />
	<line stroke-dasharray="1,1" x1="172" y1="14" x2="172" y2="123" />
	<text text-anchor="middle" x="172" y="133">2</text>
	<line stroke-dasharray="1,1" x1="184" y1="14" x2="184" y2="123" />
	<line style="stroke:red" x1="196" y1="14" x2="196" y2="123" />
	<text text-anchor="middle" x="196" y="133">0</text>
	<line stroke-dasharray="1,1" x1="208" y1="14" x2="208" y2="123" />
	<line stroke-dasharray="1,1" x1="220" y1="14" x2="220" y2="123" />
	<text text-anchor="middle" x="220" y="133">22</text>
	<line stroke-dasharray="1,1" x1="232" y1="14" x2="232" y2="123" />
	<line stroke-dasharray="1,1" x1="244" y1="14" x2="244" y2="123" />
	<text text-anchor="middle" x="244" y="133">20</text>
	<line stroke-dasharray="1,1" x1="256" y1="14" x2="256" y2="123" />
	<line stroke-dasharray="1,1" x1="268" y1="14" x2="268" y2="123" />
	<text text-anchor="middle" x="268" y="133">18</text>
	<line stroke-dasharray="1,1" x1="280" y1="14" x2="280" y2="123" />
	<line stroke-dasharray="1,1" x1="292" y1="14" x2="292" y2="123" />
	<text text-anchor="middle" x="292" y="133">16</text>
	<line stroke-dasharray="1,1" x1="304" y1="14" x2="304" y2="123" />
	<line stroke-dasharray="1,1" x1="316" y1="14" x2="316" y2="123" />
	<text text-anchor="middle" x="316" y="133">14</text>
	<line stroke-dasharray="1,1" x1="328" y1="14" x2="328" y2="123" />
	<line stroke-dasharray="1,1" x1="340" y1="14" x2="340" y2="123" />
	<text text-anchor="middle" x="340" y="133">12</text>
	<line stroke-dasharray="1,1" x1="352" y1="14" x2="352" y2="123" />
	<line stroke-dasharray="1,1" x1="364" y1="14" x2="364" y2="123" />
	<text text-anchor="middle" x="364" y="133">10</text>
	<line stroke-dasharray="1,1" x1="376" y1="14" x2="376" y2="123" />
	<line stroke-dasharray="1,1" x1="388" y1="14" x2="388" y2="123" />
	<text text-anchor="middle" x="388" y="133">8</text>
	<line stroke-dasharray="1,1" x1="400" y1="14" x2="400" y2="123" />
	<line stroke-dasharray="1,1" x1="412" y1="14" x2="412" y2="123" />
	<text text-anchor="middle" x="412" y="133">6</text>
	<line stroke-dasharray="1,1" x1="424" y1="14" x2="424" y2="123" />
	<line stroke-dasharray="1,1" x1="436" y1="14" x2="436" y2="123" />
	<text text-anchor="middle" x="436" y="133">4</text>
	<line stroke-dasharray="1,1" x1="448" y1="14" x2="448" y2="123" />
	<line stroke-dasharray="1,1" x1="460" y1="14" x2="460" y2="123" />
	<text text-anchor="middle" x="460" y="133">2</text>
	<polygon stroke="red" fill="red" points="51,121 57,118 57,124" />
	<!-- Temperature -->
	<polyline style="fill:none;stroke:blue" points="55,84 56,85 57,87 58,91 59,92 60,91 61,92 62,93 63,95 64,95 65,94 66,96 67,97 68,98 69,100 70,102 71,103 72,104 73,107 74,107 75,108 76,109 77,110 78,109 79,110 80,111 81,112 82,114 83,114 84,114 85,115 86,115 87,115 88,115 89,116 90,116 91,116 92,116 93,115 94,114 95,114 96,113 97,112 98,113 99,113 100,113 101,113 102,112 103,112 104,112 105,111 106,110 107,111 108,110 109,110 110,111 111,111 112,111 113,110 114,112 115,111 116,110 117,110 118,110 119,109 120,109 121,109 122,108 123,108 124,107 125,106 126,106 127,106 128,106 129,106 130,106 131,106 132,106 133,106 134,105 135,106 136,106 137,105 138,105 139,105 140,105 141,106 142,106 143,106 144,106 145,106 146,105 147,106 148,105 149,105 150,104 151,104 152,104 153,105 154,105 155,106 156,105 157,106 158,105 159,104 160,105 161,104 162,104 163,104 164,105 165,105 166,105 167,105 168,104 169,104 170,104 171,105 172,106 173,106 174,106 175,107 176,107 177,107 178,106 179,106 180,107 181,107 182,108 183,108 184,109 185,110 186,110 187,111 188,113 189,115 190,118 191,118 192,118 193,118 194,118 195,116 196,115 197,113 198,112 199,111 200,110 201,109 202,108 203,108 204,109 205,109 206,110 207,110 208,109 209,109 210,108 211,106 212,104 213,105 214,103 215,103 216,102 217,101 218,98 219,97 220,96 221,96 222,94 223,93 224,91 225,89 226,87 227,85 228,82 229,81 230,78 231,76 232,75 233,74 234,74 235,74 236,74 237,74 238,73 239,73 240,73 241,74 242,74 243,75 244,75 245,74 246,74 247,73 248,73 249,73 250,73 251,73 252,73 253,72 254,72 255,70 256,70 257,70 258,70 259,70 260,71 261,70 262,71 263,71 264,72 265,73 266,72 267,72 268,71 269,69 270,67 271,64 272,59 273,53 274,44 275,35 276,35 277,35 278,33 279,32 280,32 281,30 282,29 283,27 284,25 285,24 286,24 287,23 288,22 289,20 290,19 291,18 292,17 293,16 294,15 295,16 296,15 297,18 298,21 299,24 300,25 301,24 302,21 303,19 304,16 305,14 306,14 307,16 308,18 309,20 310,20 311,21 312,23 313,23 314,22 315,22 316,23 317,24 318,27 319,25 320,22 321,19 322,19 323,19 324,19 325,18 326,16 327,15 328,15 329,16 330,15 331,17 332,17 333,19 334,21 335,19 336,20 337,19 338,19 339,22 340,22 341,21 342,16 343,14 344,15 345,18 346,14 347,17 348,17 349,24 350,30 351,32 352,37 353,47 354,55 355,57 356,59 357,60 358,59 359,53 360,53 361,56 362,59 363,59 364,59 365,61 366,63 367,68 368,71 369,74 370,75 371,75 372,75 373,76 374,78 375,79 376,81 377,84 378,87 379,88 380,88 381,88 382,89 383,91 384,93 385,97 386,105 387,109 388,110 389,113 390,114 391,116 392,117 393,117 394,118 395,118 396,118 397,118 398,119 399,120 400,120 401,120 402,121 403,120 404,118 405,118 406,118 407,116 408,116 409,115 410,115 411,114 412,114 413,115 414,114 415,114 416,114 417,114 418,114 419,112 420,111 421,111 422,111 423,111 424,112 425,112 426,113 427,114 428,113 429,114 430,114 431,115 432,114 433,115 434,115 435,115 436,115 437,115 438,115 439,115 440,114 441,114 442,114 443,113 444,112 445,110 446,111 447,111 448,111 449,110 450,110 451,109 452,108 453,109 454,109 455,110 456,110 457,110 458,109 459,108 460,107 461,107 462,107 463,106 464,105 465,104 466,104 467,103 468,103 469,103 " />
</svg>
