<?xml version="1.0" encoding="utf-8" standalone="no"?>
<svg xmlns="http://www.w3.org/2000/svg" xmlns:xlink="http://www.w3.org/1999/xlink" width="500" height="135">
	<!-- Created by: GoveeBTTempLogger Version 2.20210213-1 Built on: Feb 13 2021 at 15:37:01 -->
	<style>
		text {
			font-family: sans-serif;
			font-size: 12px;
		}
		line {
			stroke: black;
		}
	</style>
	<rect width="500" height="135" stroke="grey" stroke-width="2" fill-opacity="0" />
	<text x="54" y="12">Outside (E3:5E:CC:21:5C:0F)</text>
	<text fill="blue" text-anchor="middle" x="12" y="67" transform="rotate(270 12,67)">Temperature (33.0°F)</text>
	<text fill="green" text-anchor="middle" x="24" y="67" transform="rotate(270 24,67)">Humidity (93.5%)</text>
	<text text-anchor="end" x="470" y="12">2021-02-13 16:39:56</text>
	<polygon style="fill:lime;stroke:green" points="55,120 54,17 55,18 56,19 57,18 58,19 59,19 60,19 61,19 62,21 63,21 64,22 65,22 66,23 67,23 68,22 69,23 70,21 71,22 72,23 73,24 74,23 75,23 76,24 77,24 78,25 79,26 80,27 81,26 82,28 83,28 84,27 85,29 86,28 87,28 88,28 89,28 90,27 91,25 92,25 93,24 94,25 95,24 96,23 97,23 98,23 99,23 100,22 101,22 102,23 103,23 104,22 105,22 106,23 107,22 108,23 109,24 110,23 111,24 112,23 113,24 114,24 115,23 116,24 117,25 118,24 119,26 120,27 121,25 122,24 123,23 124,24 125,23 126,22 127,22 128,23 129,23 130,22 131,23 132,22 133,20 134,21 135,20 136,20 137,20 138,20 139,20 140,20 141,19 142,18 143,18 144,17 145,17 146,16 147,16 148,17 149,17 150,17 151,16 152,16 153,16 154,16 155,16 156,15 157,15 158,15 159,15 160,16 161,15 162,15 163,15 164,15 165,15 166,15 167,15 168,15 169,15 170,15 171,15 172,14 173,14 174,14 175,14 176,14 177,14 178,15 179,15 180,15 181,15 182,16 183,16 184,16 185,15 186,14 187,15 188,14 189,14 190,14 191,15 192,15 193,15 194,15 195,15 196,16 197,16 198,16 199,16 200,16 201,15 202,16 203,15 204,16 205,15 206,15 207,16 208,16 209,15 210,17 211,16 212,17 213,18 214,18 215,17 216,18 217,18 218,18 219,18 220,17 221,17 222,18 223,17 224,17 225,18 226,16 227,18 228,16 229,17 230,18 231,17 232,18 233,19 234,19 235,19 236,18 237,20 238,19 239,19 240,20 241,19 242,19 243,20 244,20 245,20 246,21 247,23 248,24 249,22 250,23 251,23 252,24 253,23 254,23 255,22 256,23 257,23 258,23 259,24 260,23 261,23 262,22 263,21 264,21 265,22 266,24 267,21 268,21 269,23 270,22 271,24 272,23 273,25 274,26 275,25 276,24 277,26 278,26 279,25 280,27 281,27 282,29 283,29 284,30 285,30 286,30 287,33 288,33 289,33 290,34 291,33 292,34 293,35 294,36 295,34 296,33 297,34 298,35 299,36 300,34 301,35 302,33 303,37 304,36 305,36 306,35 307,40 308,41 309,44 310,43 311,45 312,44 313,45 314,44 315,44 316,46 317,48 318,49 319,49 320,50 321,53 322,56 323,58 324,59 325,61 326,62 327,64 328,68 329,67 330,69 331,72 332,74 333,74 334,77 335,80 336,82 337,84 338,85 339,88 340,90 341,92 342,95 343,96 344,98 345,99 346,103 347,102 348,104 349,105 350,104 351,103 352,103 353,102 354,103 355,104 356,104 357,104 358,104 359,104 360,103 361,106 362,102 363,102 364,97 365,98 366,97 367,96 368,99 369,101 370,101 371,100 372,102 373,103 374,104 375,103 376,102 377,101 378,100 379,99 380,99 381,99 382,99 383,102 384,100 385,103 386,103 387,103 388,105 389,107 390,109 391,114 392,117 393,118 394,114 395,121 396,120 397,118 398,116 399,119 400,117 401,115 402,112 403,111 404,112 405,113 406,111 407,109 408,109 409,111 410,106 411,102 412,104 413,104 414,102 415,100 416,98 417,103 418,98 419,99 420,94 421,88 422,90 423,87 424,85 425,87 426,84 427,85 428,89 429,88 430,89 431,89 432,90 433,89 434,93 435,90 436,92 437,93 438,93 439,89 440,96 441,93 442,92 443,87 444,88 445,86 446,92 447,90 448,91 449,84 450,87 451,87 452,82 453,82 454,73 455,71 456,68 457,68 458,62 459,61 460,60 461,62 462,61 463,61 464,60 465,61 466,61 467,60 468,63 469,64 469,120" />
	<line x1="52" y1="14" x2="472" y2="14"/>
	<text fill="blue" text-anchor="end" x="52" y="19">38.2</text>
	<text fill="green" x="472" y="18">94.8</text>
	<line x1="52" y1="121" x2="472" y2="121"/>
	<text fill="blue" text-anchor="end" x="52" y="126">27.3</text>
	<text fill="green" x="472" y="125">55.2</text>
	<line x1="54" y1="14" x2="54" y2="121"/>
	<line x1="470" y1="14" x2="470" y2="121"/>
	<line x1="52" y1="40" x2="472" y2="40" stroke-dasharray="1,1" />
	<text fill="blue" text-anchor="end" x="52" y="44">35.5</text>
	<text fill="green" x="472" y="44">84.9</text>
	<line x1="52" y1="66" x2="472" y2="66" stroke-dasharray="1,1" />
	<text fill="blue" text-anchor="end" x="52" y="70">32.7</text>
	<text fill="green" x="472" y="70">75.0</text>
	<line x1="52" y1="92" x2="472" y2="92" stroke-dasharray="1,1" />
	<text fill="blue" text-anchor="end" x="52" y="96">30.0</text>
	<text fill="green" x="472" y="96">65.1</text>
	<!-- FreezingLine = 74 -->
	<line style="fill:red;stroke:red;stroke-dasharray:1;" x1="52" y1="74" x2="472" y2="74" />
	<line stroke-dasharray="1,1" x1="62" y1="14" x2="62" y2="123" />
	<text text-anchor="middle" x="62" y="133">16</text>
	<line stroke-dasharray="1,1" x1="74" y1="14" x2="74" y2="123" />
	<line stroke-dasharray="1,1" x1="86" y1="14" x2="86" y2="123" />
	<text text-anchor="middle" x="86" y="133">14</text>
	<line stroke-dasharray="1,1" x1="98" y1="14" x2="98" y2="123" />
	<line stroke-dasharray="1,1" x1="110" y1="14" x2="110" y2="123" />
	<text text-anchor="middle" x="110" y="133">12</text>
	<line stroke-dasharray="1,1" x1="122" y1="14" x2="122" y2="123" />
	<line stroke-dasharray="1,1" x1="134" y1="14" x2="134" y2="123" />
	<text text-anchor="middle" x="134" y="133">10</text>
	<line stroke-dasharray="1,1" x1="146" y1="14" x2="146" y2="123" />
	<line stroke-dasharray="1,1" x1="158" y1="14" x2="158" y2="123" />
	<text text-anchor="middle" x="158" y="133">8</text>
	<line stroke-dasharray="1,1" x1="170" y1="14" x2="170" y2="123" />
	<line stroke-dasharray="1,1" x1="182" y1="14" x2="182" y2="123" />
	<text text-anchor="middle" x="182" y="133">6</text>
	<line stroke-dasharray="1,1" x1="194" y1="14" x2="194" y2="123" />
	<line stroke-dasharray="1,1" x1="206" y1="14" x2="206" y2="123" />
	<text text-anchor="middle" x="206" y="133">4</text>
	<line stroke-dasharray="1,1" x1="218" y1="14" x2="218" y2="123" />
	<line stroke-dasharray="1,1" x1="230" y1="14" x2="230" y2="123" />
	<text text-anchor="middle" x="230" y="133">2</text>
	<line stroke-dasharray="1,1" x1="242" y1="14" x2="242" y2="123" />
	<line style="stroke:red" x1="254" y1="14" x2="254" y2="123" />
	<text text-anchor="middle" x="254" y="133">0</text>
	<line stroke-dasharray="1,1" x1="266" y1="14" x2="266" y2="123" />
	<line stroke-dasharray="1,1" x1="278" y1="14" x2="278" y2="123" />
	<text text-anchor="middle" x="278" y="133">22</text>
	<line stroke-dasharray="1,1" x1="290" y1="14" x2="290" y2="123" />
	<line stroke-dasharray="1,1" x1="302" y1="14" x2="302" y2="123" />
	<text text-anchor="middle" x="302" y="133">20</text>
	<line stroke-dasharray="1,1" x1="314" y1="14" x2="314" y2="123" />
	<line stroke-dasharray="1,1" x1="326" y1="14" x2="326" y2="123" />
	<text text-anchor="middle" x="326" y="133">18</text>
	<line stroke-dasharray="1,1" x1="338" y1="14" x2="338" y2="123" />
	<line stroke-dasharray="1,1" x1="350" y1="14" x2="350" y2="123" />
	<text text-anchor="middle" x="350" y="133">16</text>
	<line stroke-dasharray="1,1" x1="362" y1="14" x2="362" y2="123" />
	<line stroke-dasharray="1,1" x1="374" y1="14" x2="374" y2="123" />
	<text text-anchor="middle" x="374" y="133">14</text>
	<line stroke-dasharray="1,1" x1="386" y1="14" x2="386" y2="123" />
	<line stroke-dasharray="1,1" x1="398" y1="14" x2="398" y2="123" />
	<text text-anchor="middle" x="398" y="133">12</text>
	<line stroke-dasharray="1,1" x1="410" y1="14" x2="410" y2="123" />
	<line stroke-dasharray="1,1" x1="422" y1="14" x2="422" y2="123" />
	<text text-anchor="middle" x="422" y="133">10</text>
	<line stroke-dasharray="1,1" x1="434" y1="14" x2="434" y2="123" />
	<line stroke-dasharray="1,1" x1="446" y1="14" x2="446" y2="123" />
	<text text-anchor="middle" x="446" y="133">8</text>
	<line stroke-dasharray="1,1" x1="458" y1="14" x2="458" y2="123" />
	<polygon stroke="red" fill="red" points="51,121 57,118 57,124" />
	<polyline style="fill:none;stroke:blue" points="55,64 56,62 57,62 58,61 59,62 60,61 61,61 62,59 63,58 64,57 65,54 66,54 67,51 68,50 69,51 70,50 71,53 72,53 73,50 74,53 75,52 76,53 77,53 78,54 79,53 80,53 81,51 82,52 83,49 84,49 85,48 86,48 87,49 88,52 89,53 90,53 91,56 92,60 93,61 94,61 95,61 96,63 97,63 98,64 99,64 100,65 101,63 102,65 103,67 104,67 105,66 106,70 107,68 108,68 109,67 110,68 111,68 112,68 113,70 114,70 115,73 116,73 117,72 118,72 119,72 120,69 121,69 122,72 123,76 124,79 125,79 126,79 127,83 128,81 129,81 130,81 131,83 132,82 133,81 134,83 135,84 136,87 137,86 138,86 139,86 140,87 141,87 142,88 143,90 144,92 145,95 146,96 147,98 148,98 149,99 150,98 151,97 152,99 153,101 154,102 155,101 156,103 157,104 158,104 159,104 160,103 161,102 162,102 163,101 164,100 165,100 166,102 167,102 168,103 169,103 170,103 171,104 172,103 173,103 174,102 175,103 176,101 177,102 178,102 179,102 180,103 181,101 182,101 183,99 184,98 185,100 186,103 187,106 188,107 189,108 190,108 191,109 192,109 193,109 194,109 195,110 196,111 197,111 198,110 199,111 200,113 201,113 202,117 203,118 204,117 205,117 206,116 207,117 208,118 209,118 210,118 211,117 212,119 213,120 214,120 215,119 216,119 217,119 218,120 219,120 220,119 221,120 222,120 223,119 224,120 225,120 226,120 227,120 228,120 229,120 230,119 231,119 232,117 233,117 234,117 235,118 236,117 237,117 238,116 239,117 240,117 241,116 242,116 243,116 244,115 245,112 246,111 247,113 248,111 249,110 250,109 251,111 252,111 253,110 254,111 255,113 256,113 257,113 258,114 259,115 260,112 261,113 262,114 263,115 264,116 265,116 266,116 267,115 268,116 269,116 270,115 271,115 272,116 273,115 274,115 275,114 276,112 277,114 278,114 279,115 280,115 281,114 282,112 283,111 284,110 285,111 286,111 287,109 288,109 289,108 290,109 291,107 292,107 293,106 294,106 295,103 296,104 297,107 298,107 299,107 300,108 301,110 302,112 303,111 304,109 305,109 306,109 307,108 308,107 309,107 310,105 311,105 312,104 313,103 314,103 315,103 316,103 317,100 318,99 319,97 320,96 321,94 322,93 323,90 324,88 325,88 326,88 327,88 328,88 329,86 330,84 331,83 332,83 333,84 334,82 335,81 336,81 337,80 338,78 339,76 340,75 341,74 342,72 343,70 344,69 345,67 346,64 347,62 348,61 349,60 350,58 351,57 352,58 353,58 354,57 355,57 356,57 357,56 358,54 359,51 360,50 361,48 362,47 363,48 364,48 365,50 366,50 367,49 368,48 369,48 370,45 371,44 372,44 373,48 374,45 375,44 376,44 377,44 378,45 379,47 380,46 381,47 382,46 383,48 384,45 385,45 386,44 387,42 388,40 389,39 390,37 391,32 392,29 393,25 394,21 395,20 396,17 397,14 398,14 399,18 400,16 401,20 402,27 403,36 404,39 405,45 406,46 407,50 408,53 409,53 410,51 411,53 412,54 413,57 414,59 415,58 416,58 417,57 418,57 419,57 420,59 421,61 422,63 423,65 424,67 425,67 426,67 427,69 428,72 429,73 430,75 431,75 432,76 433,76 434,78 435,79 436,79 437,80 438,80 439,80 440,81 441,81 442,82 443,82 444,82 445,82 446,84 447,83 448,83 449,83 450,84 451,84 452,83 453,83 454,83 455,81 456,82 457,81 458,81 459,81 460,81 461,81 462,81 463,81 464,81 465,81 466,82 467,82 468,81 469,81 " />
</svg>
