<?xml version="1.0" encoding="utf-8" standalone="no"?>
<svg xmlns="http://www.w3.org/2000/svg" xmlns:xlink="http://www.w3.org/1999/xlink" width="500" height="135">
	<!-- Created by: GoveeBTTempLogger Version 2.20211127-2 Built on: Nov 27 2021 at 11:38:38 -->
	<style>
		text { font-family: sans-serif; font-size: 12px; fill: black; }
		line { stroke: black; }
		polygon { fill-opacity: 0.5; }
	@media only screen and (prefers-color-scheme: dark) {
		text { fill: grey; }
		line { stroke: grey; }
	}
	</style>
	<rect style="fill-opacity:0;stroke:grey;stroke-width:2" width="500" height="135" />
	<text x="54" y="12">Outside (E3:5E:CC:21:5C:0F)</text>
	<text style="text-anchor:end" x="470" y="12">2021-11-28 13:24:37</text>
	<text style="fill:blue;text-anchor:middle" x="12" y="67" transform="rotate(270 12,67)">Temperature (54.3°F)</text>
	<text style="fill:green;text-anchor:middle" x="24" y="67" transform="rotate(270 24,67)">Humidity (100.0%)</text>
	<!-- Humidity -->
	<polygon style="fill:lime;stroke:green" points="55,120 54,14 55,14 56,14 57,14 58,14 59,14 60,14 61,14 62,14 63,14 64,14 65,14 66,14 67,14 68,14 69,14 70,14 71,17 72,18 73,19 74,21 75,26 76,31 77,33 78,37 79,44 80,50 81,59 82,73 83,88 84,98 85,102 86,112 87,117 88,119 89,121 90,119 91,119 92,120 93,120 94,120 95,119 96,117 97,110 98,106 99,103 100,101 101,102 102,103 103,104 104,105 105,106 106,107 107,107 108,106 109,107 110,107 111,108 112,106 113,106 114,103 115,103 116,106 117,104 118,102 119,99 120,97 121,95 122,90 123,89 124,88 125,88 126,88 127,85 128,81 129,80 130,80 131,76 132,74 133,71 134,67 135,64 136,65 137,62 138,63 139,63 140,62 141,62 142,63 143,60 144,59 145,58 146,54 147,54 148,53 149,53 150,52 151,53 152,52 153,53 154,52 155,52 156,53 157,54 158,53 159,55 160,53 161,53 162,54 163,54 164,52 165,53 166,54 167,53 168,51 169,47 170,44 171,40 172,36 173,36 174,37 175,41 176,40 177,39 178,39 179,38 180,37 181,36 182,32 183,28 184,29 185,28 186,24 187,22 188,21 189,21 190,23 191,24 192,25 193,27 194,26 195,24 196,22 197,21 198,20 199,17 200,16 201,15 202,16 203,16 204,17 205,15 206,15 207,16 208,16 209,16 210,16 211,16 212,14 213,14 214,14 215,14 216,14 217,14 218,14 219,14 220,14 221,14 222,14 223,14 224,14 225,14 226,14 227,14 228,14 229,14 230,14 231,14 232,14 233,14 234,14 235,14 236,14 237,14 238,14 239,14 240,14 241,14 242,14 243,14 244,14 245,14 246,14 247,14 248,14 249,14 250,14 251,14 252,14 253,14 254,14 255,14 256,14 257,14 258,14 259,14 260,14 261,14 262,14 263,14 264,14 265,14 266,14 267,14 268,14 269,14 270,14 271,14 272,14 273,14 274,14 275,14 276,14 277,14 278,14 279,14 280,14 281,14 282,14 283,14 284,14 285,14 286,14 287,14 288,14 289,14 290,14 291,14 292,14 293,14 294,14 295,14 296,14 297,14 298,14 299,14 300,14 301,14 302,14 303,14 304,14 305,14 306,14 307,14 308,14 309,14 310,14 311,14 312,14 313,14 314,14 315,14 316,14 317,14 318,14 319,14 320,14 321,14 322,14 323,14 324,14 325,14 326,14 327,14 328,14 329,14 330,14 331,14 332,14 333,14 334,14 335,14 336,14 337,14 338,14 339,14 340,14 341,15 342,20 343,27 344,31 345,38 346,46 347,50 348,44 349,44 350,42 351,39 352,40 353,37 354,32 355,26 356,24 357,24 358,24 359,22 360,19 361,18 362,16 363,17 364,17 365,18 366,20 367,22 368,24 369,23 370,24 371,20 372,16 373,14 374,14 375,14 376,14 377,14 378,14 379,14 380,14 381,14 382,14 383,14 384,14 385,14 386,14 387,14 388,14 389,14 390,14 391,14 392,14 393,14 394,14 395,14 396,14 397,14 398,14 399,14 400,14 401,14 402,14 403,14 404,14 405,14 406,14 407,14 408,14 409,14 410,14 411,14 412,14 413,14 414,14 415,14 416,14 417,14 418,14 419,14 420,14 421,14 422,14 423,14 424,14 425,14 426,14 427,14 428,14 429,14 430,14 431,14 432,14 433,14 434,14 435,14 436,14 437,14 438,14 439,14 440,14 441,14 442,14 443,14 444,14 445,14 446,14 447,14 448,14 449,14 450,14 451,14 452,14 453,14 454,14 455,14 456,14 457,14 458,14 459,14 460,14 461,14 462,14 463,14 464,14 465,14 466,14 467,14 468,14 469,14 469,120" />
	<line x1="52" y1="14" x2="472" y2="14"/>
	<text style="fill:blue;text-anchor:end" x="52" y="19">59.6</text>
	<text style="fill:green" x="472" y="18">100.0</text>
	<line x1="52" y1="121" x2="472" y2="121"/>
	<text style="fill:blue;text-anchor:end" x="52" y="126">49.0</text>
	<text style="fill:green" x="472" y="125">88.0</text>
	<line x1="54" y1="14" x2="54" y2="121"/>
	<line x1="470" y1="14" x2="470" y2="121"/>
	<line style="stroke-dasharray:1" x1="52" y1="40" x2="472" y2="40" />
	<text style="fill:blue;text-anchor:end" x="52" y="44">56.9</text>
	<text style="fill:green" x="472" y="44">97.0</text>
	<line style="stroke-dasharray:1" x1="52" y1="66" x2="472" y2="66" />
	<text style="fill:blue;text-anchor:end" x="52" y="70">54.3</text>
	<text style="fill:green" x="472" y="70">94.0</text>
	<line style="stroke-dasharray:1" x1="52" y1="92" x2="472" y2="92" />
	<text style="fill:blue;text-anchor:end" x="52" y="96">51.7</text>
	<text style="fill:green" x="472" y="96">91.0</text>
	<line style="stroke-dasharray:1" x1="58" y1="14" x2="58" y2="123" />
	<line style="stroke-dasharray:1" x1="70" y1="14" x2="70" y2="123" />
	<text style="text-anchor:middle" x="70" y="133">12</text>
	<line style="stroke-dasharray:1" x1="82" y1="14" x2="82" y2="123" />
	<line style="stroke-dasharray:1" x1="94" y1="14" x2="94" y2="123" />
	<text style="text-anchor:middle" x="94" y="133">10</text>
	<line style="stroke-dasharray:1" x1="106" y1="14" x2="106" y2="123" />
	<line style="stroke-dasharray:1" x1="118" y1="14" x2="118" y2="123" />
	<text style="text-anchor:middle" x="118" y="133">8</text>
	<line style="stroke-dasharray:1" x1="130" y1="14" x2="130" y2="123" />
	<line style="stroke-dasharray:1" x1="142" y1="14" x2="142" y2="123" />
	<text style="text-anchor:middle" x="142" y="133">6</text>
	<line style="stroke-dasharray:1" x1="154" y1="14" x2="154" y2="123" />
	<line style="stroke-dasharray:1" x1="166" y1="14" x2="166" y2="123" />
	<text style="text-anchor:middle" x="166" y="133">4</text>
	<line style="stroke-dasharray:1" x1="178" y1="14" x2="178" y2="123" />
	<line style="stroke-dasharray:1" x1="190" y1="14" x2="190" y2="123" />
	<text style="text-anchor:middle" x="190" y="133">2</text>
	<line style="stroke-dasharray:1" x1="202" y1="14" x2="202" y2="123" />
	<line style="stroke:red" x1="214" y1="14" x2="214" y2="123" />
	<text style="text-anchor:middle" x="214" y="133">0</text>
	<line style="stroke-dasharray:1" x1="226" y1="14" x2="226" y2="123" />
	<line style="stroke-dasharray:1" x1="238" y1="14" x2="238" y2="123" />
	<text style="text-anchor:middle" x="238" y="133">22</text>
	<line style="stroke-dasharray:1" x1="250" y1="14" x2="250" y2="123" />
	<line style="stroke-dasharray:1" x1="262" y1="14" x2="262" y2="123" />
	<text style="text-anchor:middle" x="262" y="133">20</text>
	<line style="stroke-dasharray:1" x1="274" y1="14" x2="274" y2="123" />
	<line style="stroke-dasharray:1" x1="286" y1="14" x2="286" y2="123" />
	<text style="text-anchor:middle" x="286" y="133">18</text>
	<line style="stroke-dasharray:1" x1="298" y1="14" x2="298" y2="123" />
	<line style="stroke-dasharray:1" x1="310" y1="14" x2="310" y2="123" />
	<text style="text-anchor:middle" x="310" y="133">16</text>
	<line style="stroke-dasharray:1" x1="322" y1="14" x2="322" y2="123" />
	<line style="stroke-dasharray:1" x1="334" y1="14" x2="334" y2="123" />
	<text style="text-anchor:middle" x="334" y="133">14</text>
	<line style="stroke-dasharray:1" x1="346" y1="14" x2="346" y2="123" />
	<line style="stroke-dasharray:1" x1="358" y1="14" x2="358" y2="123" />
	<text style="text-anchor:middle" x="358" y="133">12</text>
	<line style="stroke-dasharray:1" x1="370" y1="14" x2="370" y2="123" />
	<line style="stroke-dasharray:1" x1="382" y1="14" x2="382" y2="123" />
	<text style="text-anchor:middle" x="382" y="133">10</text>
	<line style="stroke-dasharray:1" x1="394" y1="14" x2="394" y2="123" />
	<line style="stroke-dasharray:1" x1="406" y1="14" x2="406" y2="123" />
	<text style="text-anchor:middle" x="406" y="133">8</text>
	<line style="stroke-dasharray:1" x1="418" y1="14" x2="418" y2="123" />
	<line style="stroke-dasharray:1" x1="430" y1="14" x2="430" y2="123" />
	<text style="text-anchor:middle" x="430" y="133">6</text>
	<line style="stroke-dasharray:1" x1="442" y1="14" x2="442" y2="123" />
	<line style="stroke-dasharray:1" x1="454" y1="14" x2="454" y2="123" />
	<text style="text-anchor:middle" x="454" y="133">4</text>
	<line style="stroke-dasharray:1" x1="466" y1="14" x2="466" y2="123" />
	<polygon style="fill:red;stroke:red;fill-opacity:1;" points="51,121 57,118 57,124" />
	<!-- Temperature -->
	<polyline style="fill:none;stroke:blue" points="55,66 56,65 57,65 58,64 59,64 60,64 61,63 62,63 63,62 64,62 65,61 66,60 67,58 68,58 69,57 70,56 71,56 72,56 73,55 74,54 75,53 76,52 77,50 78,48 79,46 80,44 81,40 82,35 83,31 84,29 85,26 86,23 87,21 88,20 89,20 90,19 91,19 92,18 93,18 94,18 95,18 96,19 97,21 98,23 99,25 100,26 101,25 102,25 103,25 104,24 105,24 106,23 107,24 108,25 109,25 110,25 111,26 112,26 113,26 114,26 115,25 116,24 117,24 118,23 119,23 120,23 121,23 122,23 123,23 124,23 125,23 126,23 127,23 128,24 129,23 130,23 131,22 132,22 133,22 134,22 135,22 136,22 137,22 138,21 139,21 140,20 141,19 142,18 143,18 144,18 145,18 146,19 147,19 148,20 149,19 150,19 151,18 152,18 153,18 154,18 155,17 156,17 157,16 158,16 159,16 160,15 161,15 162,15 163,15 164,15 165,14 166,14 167,14 168,15 169,16 170,16 171,17 172,19 173,18 174,16 175,16 176,16 177,17 178,16 179,16 180,17 181,17 182,20 183,20 184,21 185,21 186,23 187,25 188,25 189,27 190,28 191,30 192,31 193,32 194,33 195,34 196,34 197,32 198,32 199,32 200,31 201,30 202,30 203,29 204,29 205,30 206,30 207,30 208,30 209,30 210,29 211,28 212,27 213,26 214,26 215,26 216,28 217,29 218,31 219,34 220,34 221,34 222,35 223,35 224,37 225,38 226,38 227,38 228,38 229,39 230,39 231,40 232,40 233,40 234,41 235,41 236,40 237,40 238,40 239,39 240,39 241,39 242,40 243,40 244,40 245,40 246,41 247,41 248,42 249,42 250,42 251,43 252,43 253,43 254,43 255,44 256,44 257,44 258,44 259,45 260,45 261,45 262,45 263,46 264,46 265,47 266,47 267,47 268,48 269,48 270,49 271,50 272,51 273,52 274,53 275,53 276,53 277,53 278,53 279,53 280,53 281,53 282,54 283,54 284,55 285,58 286,60 287,61 288,63 289,65 290,67 291,69 292,70 293,71 294,72 295,73 296,76 297,77 298,79 299,79 300,80 301,81 302,83 303,85 304,86 305,85 306,85 307,85 308,85 309,86 310,86 311,85 312,84 313,83 314,81 315,80 316,80 317,79 318,78 319,79 320,80 321,81 322,81 323,81 324,82 325,83 326,85 327,87 328,88 329,89 330,89 331,88 332,87 333,87 334,86 335,87 336,88 337,87 338,88 339,86 340,84 341,84 342,82 343,77 344,74 345,71 346,64 347,58 348,55 349,56 350,58 351,62 352,64 353,67 354,72 355,76 356,81 357,82 358,84 359,86 360,88 361,91 362,94 363,95 364,96 365,95 366,95 367,94 368,93 369,93 370,94 371,97 372,98 373,99 374,99 375,100 376,101 377,102 378,102 379,103 380,103 381,104 382,104 383,104 384,105 385,107 386,107 387,108 388,110 389,111 390,111 391,112 392,113 393,114 394,114 395,114 396,114 397,114 398,115 399,115 400,115 401,116 402,116 403,117 404,117 405,117 406,118 407,118 408,118 409,117 410,117 411,117 412,117 413,117 414,118 415,118 416,118 417,118 418,118 419,119 420,119 421,118 422,119 423,118 424,119 425,118 426,118 427,118 428,119 429,119 430,119 431,119 432,119 433,119 434,119 435,119 436,119 437,119 438,120 439,120 440,119 441,119 442,120 443,120 444,120 445,120 446,119 447,120 448,120 449,120 450,120 451,121 452,120 453,120 454,120 455,120 456,120 457,120 458,120 459,120 460,120 461,120 462,120 463,119 464,119 465,119 466,119 467,119 468,118 469,118 " />
</svg>
