<?xml version="1.0" encoding="utf-8" standalone="no"?>
<svg xmlns="http://www.w3.org/2000/svg" xmlns:xlink="http://www.w3.org/1999/xlink" width="500" height="135">
  <!-- Created by: GoveeBTTempLogger Version 2.20210305-1 Built on: Mar  5 2021 at 12:33:52 -->
  <style>
    text { font-family: sans-serif; font-size: 12px; fill: black; }
    line { stroke: black; }
    polygon { fill-opacity:0.5; }
    @media screen and (prefers-color-scheme: dark) {
    text { fill: grey; }
    line { stroke: grey; }
    }
  </style>
  <rect style="fill-opacity:0;stroke:grey;stroke-width:2" width="500" height="135" />
  <text x="66" y="12">Outside (E3:5E:CC:21:5C:0F)</text>
  <text style="text-anchor:end" x="470" y="12">2021-03-05 00:00:00</text>
  <text style="fill:blue;text-anchor:middle" x="12" y="67" transform="rotate(270 12,67)">Temperature (47.8°F)</text>
  <text style="fill:green;text-anchor:middle" x="24" y="67" transform="rotate(270 24,67)">Humidity (93.3%)</text>
  <text style="fill:OrangeRed" text-anchor="middle" x="36" y="67" transform="rotate(270 36,67)">Battery (100%)</text>
  <!-- Humidity Max -->
  <polygon style="fill:lime;stroke:green" points="67,120 66,18 67,16 68,16 69,18 70,18 71,17 72,17 73,19 74,19 75,20 76,17 77,16 78,16 79,20 80,21 81,19 82,17 83,16 84,16 85,16 86,20 87,23 88,23 89,20 90,18 91,18 92,20 93,19 94,18 95,18 96,18 97,16 98,16 99,17 100,17 101,17 102,19 103,23 104,22 105,20 106,15 107,15 108,19 109,19 110,17 111,16 112,18 113,16 114,16 115,18 116,22 117,14 118,14 119,14 120,14 121,14 122,14 123,15 124,15 125,15 126,15 127,15 128,15 129,16 130,16 131,16 132,15 133,15 134,15 135,19 136,14 137,14 138,16 139,16 140,19 141,16 142,16 143,20 144,18 145,17 146,17 147,19 148,15 149,15 150,15 151,15 152,15 153,15 154,19 155,17 156,17 157,17 158,17 159,18 160,17 161,15 162,15 163,15 164,20 165,20 166,20 167,19 168,15 169,15 170,18 171,21 172,18 173,16 174,16 175,16 176,18 177,19 178,20 179,19 180,19 181,21 182,22 183,19 184,19 185,21 186,16 187,16 188,16 189,16 190,19 191,20 192,17 193,17 194,22 195,31 196,37 197,29 198,18 199,16 200,16 201,17 202,17 203,18 204,18 205,18 206,18 207,18 208,18 209,18 210,17 211,17 212,17 213,17 214,17 215,17 216,17 217,17 218,17 219,17 220,17 221,17 222,19 223,19 224,19 225,19 226,19 227,19 228,20 229,21 230,18 231,18 232,19 233,19 234,20 235,20 236,20 237,20 238,18 239,18 240,23 241,31 242,34 243,44 244,22 245,21 246,21 247,30 248,20 249,20 250,21 251,23 252,23 253,23 254,23 255,24 256,28 257,32 258,31 259,30 260,24 261,20 262,20 263,28 264,26 265,26 266,35 267,35 268,41 269,34 270,34 271,25 272,25 273,26 274,21 275,21 276,25 277,25 278,26 279,26 280,26 281,26 282,32 283,38 284,35 285,32 286,32 287,37 288,34 289,34 290,36 291,28 292,28 293,31 294,30 295,30 296,30 297,32 298,44 299,37 300,37 301,39 302,120" />
  <!-- Humidity Min -->
  <polygon style="fill:lime;stroke:green" points="67,120 66,65 67,71 68,71 69,67 70,67 71,72 72,76 73,76 74,67 75,70 76,70 77,40 78,56 79,56 80,49 81,64 82,64 83,41 84,31 85,31 86,70 87,70 88,68 89,68 90,65 91,65 92,65 93,31 94,31 95,50 96,50 97,31 98,31 99,36 100,44 101,44 102,51 103,72 104,72 105,44 106,47 107,66 108,66 109,43 110,43 111,46 112,46 113,43 114,53 115,67 116,70 117,70 118,41 119,41 120,37 121,42 122,42 123,41 124,44 125,44 126,28 127,28 128,25 129,31 130,31 131,35 132,55 133,55 134,37 135,45 136,52 137,52 138,50 139,49 140,35 141,37 142,43 143,46 144,46 145,38 146,38 147,52 148,52 149,41 150,41 151,46 152,46 153,59 154,59 155,75 156,75 157,61 158,71 159,71 160,61 161,61 162,41 163,63 164,63 165,53 166,53 167,43 168,52 169,55 170,55 171,44 172,44 173,57 174,57 175,55 176,55 177,62 178,62 179,60 180,54 181,60 182,93 183,93 184,79 185,59 186,37 187,39 188,80 189,80 190,69 191,67 192,66 193,48 194,63 195,63 196,91 197,91 198,79 199,48 200,59 201,64 202,64 203,40 204,43 205,46 206,75 207,75 208,72 209,72 210,66 211,57 212,57 213,65 214,65 215,57 216,57 217,45 218,45 219,57 220,57 221,60 222,74 223,74 224,73 225,70 226,60 227,55 228,49 229,78 230,78 231,67 232,67 233,51 234,47 235,50 236,71 237,71 238,56 239,49 240,82 241,106 242,106 243,121 244,121 245,96 246,78 247,89 248,89 249,86 250,86 251,86 252,91 253,91 254,83 255,91 256,91 257,89 258,96 259,96 260,88 261,88 262,83 263,88 264,89 265,93 266,107 267,107 268,94 269,97 270,97 271,92 272,91 273,91 274,89 275,95 276,95 277,98 278,98 279,89 280,93 281,93 282,92 283,102 284,102 285,99 286,106 287,106 288,96 289,93 290,91 291,84 292,93 293,93 294,95 295,95 296,95 297,92 298,105 299,105 300,96 301,94 302,120" />
  <line x1="64" y1="14" x2="472" y2="14"/>
  <text style="fill:blue;text-anchor:end" x="64" y="19">99.5</text>
  <text style="fill:green" x="472" y="18">100.0</text>
  <line x1="64" y1="121" x2="472" y2="121"/>
  <text style="fill:blue;text-anchor:end" x="64" y="126">27.3</text>
  <text style="fill:green" x="472" y="125">15.4</text>
  <line x1="66" y1="14" x2="66" y2="121"/>
  <line x1="470" y1="14" x2="470" y2="121"/>
  <line style="stroke-dasharray:1" x1="64" y1="40" x2="472" y2="40" />
  <text style="fill:blue;text-anchor:end" x="64" y="44">81.5</text>
  <text style="fill:green" x="472" y="44">78.9</text>
  <line style="stroke-dasharray:1" x1="64" y1="66" x2="472" y2="66" />
  <text style="fill:blue;text-anchor:end" x="64" y="70">63.4</text>
  <text style="fill:green" x="472" y="70">57.7</text>
  <line style="stroke-dasharray:1" x1="64" y1="92" x2="472" y2="92" />
  <text style="fill:blue;text-anchor:end" x="64" y="96">45.4</text>
  <text style="fill:green" x="472" y="96">36.6</text>
  <!-- FreezingLine = 114 -->
  <line style="fill:red;stroke:red;stroke-dasharray:1" x1="64" y1="114" x2="472" y2="114" />
  <line style="stroke-dasharray:1" x1="70" y1="14" x2="70" y2="123" />
  <text style="text-anchor:middle" x="84" y="133">Feb</text>
  <line style="stroke-dasharray:1" x1="98" y1="14" x2="98" y2="123" />
  <text style="text-anchor:middle" x="115" y="133">Jan</text>
  <line style="stroke:red" x1="129" y1="14" x2="129" y2="123" />
  <text style="text-anchor:middle" x="146" y="133">Dec</text>
  <line style="stroke-dasharray:1" x1="160" y1="14" x2="160" y2="123" />
  <text style="text-anchor:middle" x="176" y="133">Nov</text>
  <line style="stroke-dasharray:1" x1="190" y1="14" x2="190" y2="123" />
  <text style="text-anchor:middle" x="207" y="133">Oct</text>
  <line style="stroke-dasharray:1" x1="221" y1="14" x2="221" y2="123" />
  <text style="text-anchor:middle" x="237" y="133">Sep</text>
  <line style="stroke-dasharray:1" x1="251" y1="14" x2="251" y2="123" />
  <text style="text-anchor:middle" x="268" y="133">Aug</text>
  <line style="stroke-dasharray:1" x1="282" y1="14" x2="282" y2="123" />
  <text style="text-anchor:middle" x="299" y="133">Jul</text>
  <polygon style="fill:red;stroke:red;fill-opacity:1;" points="63,121 69,118 69,124" />
  <!-- Temperature MinMax -->
  <polygon style="fill:blue;stroke:blue" points="67,68 68,68 69,73 70,73 71,73 72,69 73,69 74,77 75,71 76,71 77,78 78,79 79,82 80,84 81,77 82,77 83,83 84,93 85,105 86,104 87,104 88,93 89,85 90,85 91,78 92,78 93,83 94,83 95,78 96,78 97,85 98,85 99,86 100,87 101,88 102,83 103,83 104,89 105,92 106,88 107,88 108,88 109,82 110,82 111,81 112,73 113,73 114,68 115,68 116,74 117,74 118,78 119,86 120,86 121,89 122,79 123,79 124,80 125,86 126,86 127,88 128,83 129,83 130,83 131,90 132,82 133,82 134,87 135,88 136,84 137,84 138,80 139,80 140,80 141,80 142,84 143,78 144,78 145,85 146,85 147,85 148,93 149,88 150,88 151,82 152,82 153,77 154,77 155,72 156,69 157,69 158,68 159,68 160,75 161,75 162,88 163,73 164,73 165,78 166,78 167,84 168,85 169,67 170,67 171,83 172,83 173,67 174,67 175,74 176,74 177,77 178,77 179,86 180,76 181,76 182,82 183,82 184,84 185,73 186,62 187,62 188,62 189,62 190,65 191,61 192,61 193,71 194,70 195,70 196,83 197,81 198,81 199,80 200,71 201,60 202,60 203,71 204,71 205,64 206,53 207,53 208,54 209,60 210,65 211,64 212,59 213,53 214,53 215,53 216,53 217,61 218,61 219,50 220,50 221,48 222,44 223,44 224,47 225,47 226,58 227,62 228,62 229,48 230,48 231,47 232,47 233,51 234,51 235,51 236,39 237,39 238,54 239,61 240,47 241,24 242,24 243,27 244,27 245,40 246,40 247,28 248,28 249,30 250,30 251,34 252,44 253,39 254,37 255,34 256,34 257,36 258,34 259,34 260,35 261,35 262,32 263,29 264,29 265,26 266,14 267,14 268,34 269,35 270,37 271,45 272,31 273,31 274,37 275,40 276,40 277,26 278,26 279,30 280,30 281,30 282,34 283,31 284,26 285,26 286,14 287,14 288,35 289,38 290,40 291,44 292,28 293,28 294,29 295,29 296,33 297,29 298,28 299,28 300,36 301,44 301,83 300,83 299,83 298,76 297,74 296,80 295,80 294,75 293,72 292,70 291,73 290,74 289,82 288,82 287,77 286,73 285,76 284,76 283,75 282,72 281,74 280,74 279,73 278,73 277,77 276,77 275,77 274,82 273,82 272,77 271,77 270,84 269,84 268,81 267,73 266,71 265,71 264,73 263,73 262,68 261,74 260,81 259,81 258,79 257,79 256,80 255,80 254,79 253,82 252,82 251,80 250,77 249,79 248,79 247,74 246,79 245,79 244,82 243,82 242,78 241,76 240,82 239,84 238,84 237,77 236,75 235,75 234,73 233,73 232,76 231,81 230,81 229,74 228,74 227,78 226,80 225,83 224,84 223,84 222,81 221,81 220,82 219,82 218,80 217,81 216,84 215,84 214,81 213,78 212,81 211,84 210,84 209,87 208,88 207,94 206,94 205,82 204,82 203,85 202,90 201,96 200,102 199,102 198,101 197,107 196,108 195,108 194,92 193,90 192,89 191,100 190,100 189,99 188,99 187,87 186,92 185,104 184,106 183,106 182,113 181,113 180,107 179,107 178,100 177,102 176,102 175,93 174,92 173,93 172,94 171,94 170,99 169,102 168,102 167,97 166,97 165,97 164,93 163,104 162,105 161,105 160,105 159,106 158,106 157,106 156,108 155,108 154,93 153,93 152,102 151,104 150,105 149,113 148,113 147,101 146,97 145,97 144,93 143,93 142,93 141,93 140,91 139,111 138,115 137,118 136,118 135,110 134,109 133,112 132,112 131,103 130,100 129,93 128,100 127,105 126,105 125,97 124,100 123,102 122,103 121,108 120,108 119,98 118,94 117,99 116,101 115,101 114,100 113,100 112,105 111,105 110,107 109,107 108,110 107,116 106,116 105,105 104,107 103,107 102,105 101,100 100,100 99,99 98,96 97,100 96,101 95,101 94,96 93,97 92,102 91,108 90,113 89,113 88,116 87,120 86,121 85,121 84,114 83,109 82,104 81,105 80,105 79,103 78,103 77,100 76,105 75,107 74,107 73,103 72,107 71,107 70,99 69,98 68,106 67,106 " />
  <!-- Battery -->
  <polyline style="fill:none;stroke:OrangeRed" points="67,14 68,14 69,14 70,14 71,14 72,14 73,14 74,14 75,14 76,14 77,14 78,14 79,14 80,14 81,14 82,14 83,15 84,15 85,16 86,16 87,15 88,14 89,14 90,14 91,14 92,14 93,14 94,14 95,14 96,14 97,14 98,14 99,14 100,14 101,14 102,14 103,14 104,14 105,14 106,14 107,14 108,14 109,14 110,14 111,14 112,14 113,14 114,14 115,14 116,14 117,14 118,14 119,14 120,14 121,14 122,14 123,14 124,14 125,14 126,14 127,14 128,14 129,14 130,14 131,14 132,14 133,14 134,14 135,14 136,15 137,15 138,14 139,14 140,14 141,14 142,14 143,14 144,14 145,14 146,14 147,14 148,15 149,14 150,14 151,14 152,14 153,14 154,14 155,14 156,14 157,14 158,14 159,14 160,14 161,14 162,14 163,14 164,14 165,14 166,14 167,14 168,14 169,14 170,14 171,14 172,14 173,14 174,14 175,14 176,14 177,14 178,14 179,14 180,15 181,14 182,14 183,14 184,14 185,14 186,14 187,14 188,14 189,14 190,14 191,14 192,14 193,14 194,14 195,14 196,15 197,14 198,14 199,14 200,14 201,14 202,14 203,14 204,14 205,14 206,14 207,14 208,14 209,14 210,14 211,14 212,14 213,14 214,14 215,14 216,14 217,14 218,14 219,14 220,14 221,14 222,14 223,14 224,14 225,14 226,14 227,14 228,14 229,14 230,14 231,14 232,14 233,14 234,14 235,14 236,14 237,14 238,14 239,14 240,14 241,14 242,14 243,14 244,14 245,14 246,14 247,14 248,14 249,14 250,14 251,14 252,14 253,14 254,14 255,14 256,14 257,14 258,14 259,14 260,14 261,14 262,14 263,14 264,14 265,14 266,14 267,14 268,14 269,14 270,14 271,14 272,14 273,14 274,14 275,14 276,14 277,14 278,14 279,14 280,14 281,14 282,14 283,14 284,14 285,14 286,14 287,14 288,14 289,14 290,14 291,14 292,14 293,14 294,14 295,14 296,14 297,14 298,14 299,14 300,14 301,14 " />
</svg>